<?xml version="1.0" encoding="UTF-8"?>
<svg width="52px" height="52px" viewBox="0 0 52 52" version="1.1" xmlns="http://www.w3.org/2000/svg" xmlns:xlink="http://www.w3.org/1999/xlink">
    <!-- Generator: Sketch 46.1 (44463) - http://www.bohemiancoding.com/sketch -->
    <title>Artboard 5</title>
    <desc>Created with Sketch.</desc>
    <defs></defs>
    <g id="Visual-Design" stroke="none" stroke-width="1" fill="none" fill-rule="evenodd">
        <g id="Artboard-5" stroke-width="2" stroke="#00B3EB" fill="#FFFFFF" fill-rule="nonzero">
            <g id="Group-4" transform="translate(4.000000, 4.000000)">
                <g id="Group-2">
                    <g id="Group-3">
                        <path d="M13.3741177,41.4652321 C13.3392348,38.3959647 13.3383627,35.3249174 13.3366186,32.25565 C13.3348744,29.1863826 13.3802223,21.513659 13.4107448,20.25 L2.269135,20.25 C1.32642365,20.25 0.597370282,20.5970613 0.184879562,21.5020902 C0.118601983,21.6426946 0.0610451384,21.7904181 0,21.9381416 L0,41.3130591 C0.174414681,41.6209647 0.308713985,41.9626866 0.528476483,42.2296568 C0.890386947,42.666598 1.39531745,42.8525872 1.9543165,42.8525872 C5.76440521,42.8525872 9.57536599,42.863266 13.3863268,42.8481377 C13.3793502,42.182492 13.3758619,41.6067263 13.3741177,41.4652321 Z" id="Shape"></path>
                        <path d="M44.3021097,19.8535994 C43.986054,18.5907331 43.300632,17.5998688 42.0735363,17.158837 C41.4344338,16.9440235 40.7653416,16.8367358 40.0924764,16.8411776 C36.5206664,16.8130059 32.9479044,16.8304918 29.3760944,16.8314632 C28.9172424,16.8314632 28.9001069,16.8023201 28.973409,16.3506026 C29.1952191,15.0207072 29.3837102,13.6849833 29.6397914,12.3609166 C29.9863103,10.5686179 30.0301012,8.78991929 29.4446366,7.04813525 C28.9172424,5.48218106 28.3194022,3.93954133 27.7472652,2.39107298 C27.4264497,1.51678093 26.8838239,0.876604873 26.0175267,0.505516473 C24.3791778,-0.197802903 22.7636763,-0.184202805 21.1948216,0.653174684 C20.19144,1.1884357 19.6040715,2.04232759 19.6364386,3.2595364 C19.6821334,4.97314881 19.6945091,6.68870408 19.7630513,8.40134504 C19.7945068,8.95350654 19.664985,9.50280444 19.3908291,9.9799279 C18.0951912,12.2501729 16.8414402,14.5456752 15.4877318,16.7799771 C14.7880302,17.9311283 13.9103093,18.9705644 13.0906588,20.0430293 C13.0614649,20.0812391 13.0297324,20.1181537 12.9954613,20.153773 L12.9954613,24.7914065 C12.9954613,30.642687 12.9789604,36.4942912 12.9459586,42.3462193 C14.0550095,43.0611959 15.2430742,43.3866268 16.5834549,43.3788553 C22.6827585,43.3419408 28.782062,43.3623409 34.8804135,43.3623409 C35.9409136,43.3623409 36.9890381,43.2962833 38.0114592,42.954338 C40.0420217,42.274333 41.3176682,40.6695214 41.4785519,38.5003057 C41.5404303,37.6755569 41.5033033,36.8585796 41.211999,36.0668596 C41.171064,35.9561159 41.2396062,35.7598859 41.3195721,35.6510851 C42.122087,34.5582201 42.5999784,33.3487827 42.5143007,31.9683727 C42.4857414,31.4923693 42.3391373,31.0183087 42.1953891,30.5597911 C42.1192311,30.3130465 42.1201831,30.1488739 42.2839228,29.9390438 C43.0455027,28.9588653 43.5110185,27.8456001 43.4738914,26.5875909 C43.4567559,25.9940438 43.2416096,25.4072967 43.1321324,24.8156924 C43.1054771,24.6738628 43.0835817,24.466947 43.1587877,24.3814607 C43.8156505,23.6344267 44.1812088,22.7543061 44.3677959,21.7828705 C44.3834126,21.746264 44.4060732,21.71323 44.4344342,21.6857269 L44.4344342,20.3160027 C44.3925473,20.1615444 44.3430446,20.0090291 44.3021097,19.8535994 Z" id="Shape"></path>
                    </g>
                </g>
            </g>
        </g>
    </g>
</svg>