<?xml version="1.0" encoding="UTF-8"?>
<svg width="77px" height="50px" viewBox="0 0 77 50" version="1.1" xmlns="http://www.w3.org/2000/svg" xmlns:xlink="http://www.w3.org/1999/xlink">
    <!-- Generator: Sketch 48.2 (47327) - http://www.bohemiancoding.com/sketch -->
    <title>Artboard 2 Copy</title>
    <desc>Created with Sketch.</desc>
    <defs></defs>
    <g id="linguists" stroke="none" stroke-width="1" fill="none" fill-rule="evenodd">
        <g id="Artboard-2-Copy" stroke="#FF516B" stroke-width="2">
            <g id="Group-3" transform="translate(2.000000, 3.000000)">
                <path d="M48.8411756,0.000136210405 C49.1432205,-0.00456107582 50.4340929,0.112539191 50.6472272,0.324361111 C50.8597307,0.53555608 50.9768412,0.822882356 50.9721498,1.12084831 L50.9720864,41.4997121 C50.9777845,41.9041744 50.7675507,42.27407 50.4211526,42.474999 C50.0736941,42.6765431 48.6435301,42.6765431 48.2960717,42.474999 C47.9496736,42.27407 47.7394397,41.9041744 47.7450862,41.5069808 L47.7451378,39.1280477 L37.160964,36.3605378 L37.160964,43.1902399 C37.1642339,43.8253846 36.4475171,44.4081782 35.8206524,44.2790005 L16.3249304,40.1667103 C15.8334502,40.0653274 15.4333979,39.5741975 15.4359535,39.0801082 L15.4359603,31.5836311 L15.4359603,31.1791494 L9.05994728,29.6845207 L1.11347429,29.6845207 C0.497862909,29.6844597 6.11152673e-05,29.1897232 -2.52020982e-09,28.5810005 L5.72774959e-11,14.047559 C6.11152673e-05,13.4388876 0.497862909,12.9441511 1.113525,12.9440901 L9.17849353,12.9301594 L47.7451378,3.50079414 L47.7451378,1.12889869 C47.7404772,0.828854162 47.8528577,0.546821555 48.0578086,0.336666407 C48.2633592,0.125896268 48.5451754,0.00472618384 48.8411756,0.000136210405 Z M32.7654699,35.0800876 L28.590031,34.0815595 L19.8314544,31.9870047 L19.8314544,36.8458824 L32.7654699,39.5573512 L32.7654699,35.0800876 Z" id="Combined-Shape"></path>
                <path d="M70.5940171,3.35690787 L59.1971709,8.9944342 C58.8021986,9.16097731 58.5067467,9.61550027 58.4287643,10.1747552 C58.3508869,10.7332573 58.5024673,11.3059195 58.8233679,11.6632625 C59.1453892,12.0218534 59.5848529,12.1044435 59.9951278,11.8607702 L71.3675575,6.23448062 C71.8927051,5.97221439 72.1954659,5.21389339 72.0771958,4.46147419 C71.9589342,3.70910891 71.4558679,3.19260374 70.8994893,3.25455081 C70.7989189,3.26808593 70.700043,3.30052141 70.5940171,3.35690787 Z" id="Shape"></path>
                <path d="M59.4789604,18.5958849 C59.080159,18.6210008 58.7221959,18.9308001 58.539678,19.4075374 C58.3576853,19.8829031 58.3774801,20.4527048 58.5917116,20.903185 C58.806631,21.3551114 59.1847554,21.6185463 59.6074477,21.5924564 L70.9866592,21.5925248 C71.3889366,21.6001937 71.7626727,21.3153421 71.9647788,20.8480994 C72.166261,20.3822991 72.166261,19.8067957 71.9647788,19.3409954 C71.7626727,18.8737527 71.3889366,18.5889012 70.9794809,18.5966384 L59.583631,18.5958849 C59.5487601,18.5936771 59.5138313,18.5936771 59.4789604,18.5958849 Z" id="Shape"></path>
                <path d="M58.4650372,29.8111466 C58.4155308,30.5185558 58.7246515,31.1812762 59.2201516,31.4149806 L70.6245321,37.0487874 C71.004292,37.2754149 71.4437557,37.192969 71.765777,36.8350037 C72.0866776,36.4782842 72.238258,35.906621 72.1603806,35.3490933 C72.0823982,34.790814 71.7869463,34.3370841 71.3689933,34.1603268 L59.9779752,28.5341849 C59.801405,28.4369393 59.6097105,28.4036456 59.4211512,28.437494 C58.9097686,28.5348833 58.5145376,29.1038237 58.4650372,29.8111466 Z" id="Shape"></path>
            </g>
        </g>
    </g>
</svg>