<?xml version="1.0" encoding="UTF-8"?>
<svg width="55px" height="54px" viewBox="0 0 55 54" version="1.1" xmlns="http://www.w3.org/2000/svg" xmlns:xlink="http://www.w3.org/1999/xlink">
    <!-- Generator: Sketch 46.1 (44463) - http://www.bohemiancoding.com/sketch -->
    <title>Artboard 7</title>
    <desc>Created with Sketch.</desc>
    <defs></defs>
    <g id="Visual-Design" stroke="none" stroke-width="1" fill="none" fill-rule="evenodd">
        <g id="Artboard-7" stroke="#4182D7" stroke-width="2" fill-rule="nonzero">
            <g id="Group-8-Copy" transform="translate(3.000000, 3.000000)">
                <path d="M32.9456981,14.8980448 L23.3415109,20.0695302 C23.7682031,21.3009466 24,22.6234038 24,24 C24,24.5282837 23.9658627,25.0485942 23.8996737,25.558846 L35.5019072,32.1886937 C36.9353813,30.8320128 38.8705271,30 41,30 C45.418278,30 49,33.581722 49,38 C49,42.418278 45.418278,46 41,46 C36.581722,46 33,42.418278 33,38 C33,37.8905669 33.0021973,37.781647 33.0065501,37.6732819 L21.6240772,31.1690117 C19.436253,34.1013022 15.9398588,36 12,36 C5.372583,36 0,30.627417 0,24 C0,17.372583 5.372583,12 12,12 C15.0729793,12 17.8761742,13.1550847 19.9990914,15.0547608 L29.2686485,10.0634609 C29.0934029,9.40516293 29,8.71348918 29,8 C29,3.581722 32.581722,0 37,0 C41.418278,0 45,3.581722 45,8 C45,12.418278 41.418278,16 37,16 C35.5203807,16 34.13458,15.5983149 32.9456981,14.8980448 Z" id="Combined-Shape"></path>
            </g>
        </g>
    </g>
</svg>