<?xml version="1.0" encoding="UTF-8"?>
<svg width="50px" height="50px" viewBox="0 0 50 50" version="1.1" xmlns="http://www.w3.org/2000/svg" xmlns:xlink="http://www.w3.org/1999/xlink">
    <!-- Generator: Sketch 46.2 (44496) - http://www.bohemiancoding.com/sketch -->
    <title>Artboard 5</title>
    <desc>Created with Sketch.</desc>
    <defs></defs>
    <g id="Visual-Design" stroke="none" stroke-width="1" fill="none" fill-rule="evenodd">
        <g id="Artboard-5" fill-rule="nonzero" fill="#4182D7">
            <path d="M25,9.38114094 C22.9525159,9.38114094 21.2727273,11.0416263 21.2727273,13.0655715 C21.2727273,15.0895166 22.9525159,16.750002 25,16.750002 C27.0474841,16.750002 28.7272727,15.0895166 28.7272727,13.0655715 C28.7272727,11.0416263 27.0474841,9.38114094 25,9.38114094 Z M25,11.2233562 C26.0403005,11.2233562 26.8636364,12.0372331 26.8636364,13.0655715 C26.8636364,14.0939098 26.0403005,14.9077867 25,14.9077867 C23.9596995,14.9077867 23.1363636,14.0939098 23.1363636,13.0655715 C23.1363636,12.0372331 23.9596995,11.2233562 25,11.2233562 Z M25,18.1316634 C22.9493524,18.1316634 21.0762115,18.4803211 19.6274858,19.2110864 C18.1787601,19.9418518 17.0795455,21.1715258 17.0795455,22.7228092 L17.0795455,26.4216321 C17.079592,26.9039102 17.5234776,27.3426936 18.0113636,27.3427397 L31.9886364,27.3427397 C32.4765224,27.3426936 32.920408,26.9039102 32.9204545,26.4216321 L32.9204545,22.7228092 C32.9204545,21.1715258 31.8212399,19.9418518 30.3725142,19.2110864 C28.9237885,18.4803211 27.0506476,18.1316634 25,18.1316634 Z M25,19.9738787 C26.8210569,19.9738787 28.4503876,20.3082131 29.528054,20.8518094 C30.6057203,21.3954056 31.0568182,22.0055427 31.0568182,22.7228092 L31.0568182,25.5005244 L18.9431818,25.5005244 L18.9431818,22.7228092 C18.9431818,22.0055427 19.3942797,21.3954056 20.471946,20.8518094 C21.5496124,20.3082131 23.1789431,19.9738787 25,19.9738787 Z M24.8797576,29.2606461 C24.3395603,29.3193291 23.8889551,29.8272632 23.9006413,30.3643757 L23.9006413,35.1867064 L18.9363496,38.1242257 C18.3859447,38.3860714 18.1562667,39.1499829 18.4726511,39.6665021 C18.7890301,40.1830213 19.580255,40.3358144 20.0700633,39.9750769 L25,37.0545105 L29.9299367,39.9750769 C30.419745,40.3358144 31.2109699,40.1830213 31.5273489,39.6665021 C31.8437333,39.1499829 31.6140553,38.3860714 31.0636504,38.1242257 L26.0993587,35.1867064 L26.0993587,30.3643757 C26.1127709,29.7478781 25.4997905,29.1931063 24.8797576,29.2606461 Z M12.4204545,31.0271932 C10.3729705,31.0271932 8.69318182,32.6876739 8.69318182,34.7116237 C8.69318182,36.7355735 10.3729705,38.3960543 12.4204545,38.3960543 C14.4679386,38.3960543 16.1477273,36.7355735 16.1477273,34.7116237 C16.1477273,32.6876739 14.4679386,31.0271932 12.4204545,31.0271932 Z M37.5795455,31.0271932 C35.5320614,31.0271932 33.8522727,32.6876739 33.8522727,34.7116237 C33.8522727,36.7355735 35.5320614,38.3960543 37.5795455,38.3960543 C39.6270295,38.3960543 41.3068182,36.7355735 41.3068182,34.7116237 C41.3068182,32.6876739 39.6270295,31.0271932 37.5795455,31.0271932 Z M12.4204545,32.8694085 C13.460755,32.8694085 14.2840909,33.6832992 14.2840909,34.7116237 C14.2840909,35.7399483 13.460755,36.553839 12.4204545,36.553839 C11.3801541,36.553839 10.5568182,35.7399483 10.5568182,34.7116237 C10.5568182,33.6832992 11.3801541,32.8694085 12.4204545,32.8694085 Z M37.5795455,32.8694085 C38.6198459,32.8694085 39.4431818,33.6832992 39.4431818,34.7116237 C39.4431818,35.7399483 38.6198459,36.553839 37.5795455,36.553839 C36.539245,36.553839 35.7159091,35.7399483 35.7159091,34.7116237 C35.7159091,33.6832992 36.539245,32.8694085 37.5795455,32.8694085 Z M12.4204545,39.7777157 C10.3698069,39.7777157 8.49666602,40.1263549 7.04794034,40.8571157 C5.59921466,41.5878764 4.5,42.8175551 4.5,44.3688385 L4.5,48.0676843 C4.50004659,48.5499763 4.94393216,48.9887459 5.43181818,48.988792 L19.4090909,48.988792 C19.8969769,48.9887459 20.3408625,48.5499763 20.3409091,48.0676843 L20.3409091,44.3688385 C20.3409091,42.8175551 19.2416944,41.5878764 17.7929688,40.8571157 C16.3442431,40.1263549 14.4711022,39.7777157 12.4204545,39.7777157 Z M37.5795455,39.7777157 C35.5288978,39.7777157 33.6557569,40.1263549 32.2070312,40.8571157 C30.7583056,41.5878764 29.6590909,42.8175551 29.6590909,44.3688385 L29.6590909,48.0676843 C29.6591375,48.5499763 30.1030231,48.9887459 30.5909091,48.988792 L44.5681818,48.988792 C45.0560678,48.9887459 45.4999534,48.5499763 45.5,48.0676843 L45.5,44.3688385 C45.5,42.8175551 44.4007853,41.5878764 42.9520597,40.8571157 C41.503334,40.1263549 39.6301931,39.7777157 37.5795455,39.7777157 Z M12.4204545,41.6199309 C14.2415115,41.6199309 15.8708422,41.954247 16.9485085,42.4978386 C18.0261749,43.0414303 18.4772727,43.651572 18.4772727,44.3688385 L18.4772727,47.1465767 L6.36363636,47.1465767 L6.36363636,44.3688385 C6.36363636,43.651572 6.8147342,43.0414303 7.89240057,42.4978386 C8.97006693,41.954247 10.5993976,41.6199309 12.4204545,41.6199309 Z M37.5795455,41.6199309 C39.4006024,41.6199309 41.0299331,41.954247 42.1075994,42.4978386 C43.1852658,43.0414303 43.6363636,43.651572 43.6363636,44.3688385 L43.6363636,47.1465767 L31.5227273,47.1465767 L31.5227273,44.3688385 C31.5227273,43.651572 31.9738251,43.0414303 33.0514915,42.4978386 C34.1291578,41.954247 35.7584885,41.6199309 37.5795455,41.6199309 Z" id="Shape"></path>
        </g>
    </g>
</svg>