<?xml version="1.0" encoding="UTF-8"?>
<svg width="52px" height="52px" viewBox="0 0 52 52" version="1.1" xmlns="http://www.w3.org/2000/svg" xmlns:xlink="http://www.w3.org/1999/xlink">
    <!-- Generator: Sketch 44.1 (41455) - http://www.bohemiancoding.com/sketch -->
    <title>Artboard</title>
    <desc>Created with Sketch.</desc>
    <defs></defs>
    <g id="Page-1" stroke="none" stroke-width="1" fill="none" fill-rule="evenodd">
        <g id="Artboard">
            <g id="Group-12" transform="translate(1.000000, 1.000000)">
                <g id="Group-21" fill="#FF616F">
                    <circle id="Oval-3" cx="25" cy="25" r="25"></circle>
                </g>
                <g id="noun_677418_cc" transform="translate(17.000000, 11.000000)" fill-rule="nonzero" fill="#FFFFFF">
                    <path d="M8.489375,0 C3.7945768,0 0,3.67933954 0,8.23170029 C0,9.27715915 0.3148196,10.6050312 0.68,11.5243804 L8.5,27 L16.32,11.5243804 C16.6872306,10.604669 17,9.27762013 17,8.23170029 C17,3.67933954 13.1842344,0 8.489375,0 Z M8.48918269,4 C10.9746954,4 13,6.01139615 13,8.5 C13,10.9886385 10.9746954,13 8.48918269,13 C6.00370462,13 4,10.9886385 4,8.5 C4,6.01139615 6.00370462,4 8.48918269,4 Z" id="Shape"></path>
                </g>
            </g>
        </g>
    </g>
</svg>