<?xml version="1.0" encoding="UTF-8"?>
<svg width="14px" height="14px" viewBox="0 0 14 14" version="1.1" xmlns="http://www.w3.org/2000/svg" xmlns:xlink="http://www.w3.org/1999/xlink">
    <!-- Generator: Sketch 46.2 (44496) - http://www.bohemiancoding.com/sketch -->
    <title>Artboard 10</title>
    <desc>Created with Sketch.</desc>
    <defs></defs>
    <g id="Visual-Design" stroke="none" stroke-width="1" fill="none" fill-rule="evenodd">
        <g id="Artboard-10" fill-rule="nonzero" fill="#4182D7">
            <path d="M11.0960073,8.51247839 C10.6608176,8.07752054 10.1121002,8.07752054 9.69583177,8.51247839 C9.37416982,8.83396897 9.03358657,9.15545955 8.71192462,9.49586133 C8.61731817,9.59041739 8.541633,9.6093286 8.44702654,9.55259497 C8.23889234,9.4391277 8.01183684,9.34457165 7.80370264,9.21219318 C6.85763807,8.60703444 6.04402255,7.85058602 5.34393477,6.98067033 C4.98443023,6.54571249 4.68168957,6.09184344 4.45463408,5.56232954 C4.41679149,5.44886228 4.41679149,5.39212865 4.51139795,5.2975726 C4.8330599,4.97608202 5.15472186,4.65459144 5.47638381,4.33310086 C5.9304948,3.8792318 5.9304948,3.34971791 5.47638381,2.89584886 C5.21148573,2.63109191 4.96550894,2.38524617 4.70061086,2.12048922 C4.43571279,1.85573228 4.17081471,1.59097533 3.90591663,1.32621838 C3.47072693,0.891260539 2.92200948,0.891260539 2.50574107,1.32621838 C2.18407912,1.64770896 1.86241717,1.98811075 1.52183392,2.30960133 C1.20017197,2.6121807 1.04880164,2.9714937 1.01095906,3.38754033 C0.954195183,4.06834391 1.1244868,4.73023628 1.37046359,5.35430623 C1.86241717,6.65917975 2.60034753,7.83167481 3.48964822,8.8907026 C4.70061086,10.3279546 6.15755029,11.4815384 7.84154522,12.2947205 C8.59839687,12.6729447 9.39309111,12.9566129 10.2634705,12.9944353 C10.8500305,13.0322577 11.3798267,12.880968 11.7771738,12.427099 C12.0609932,12.1056084 12.3826551,11.8219402 12.6664745,11.5193609 C13.1016642,11.0654918 13.1205855,10.5359779 12.6664745,10.0821089 C12.1555996,9.57150618 11.6258035,9.04199228 11.0960073,8.51247839 Z" id="Shape"></path>
        </g>
    </g>
</svg>