<?xml version="1.0" encoding="UTF-8"?>
<svg width="51px" height="50px" viewBox="0 0 51 50" version="1.1" xmlns="http://www.w3.org/2000/svg" xmlns:xlink="http://www.w3.org/1999/xlink">
    <!-- Generator: Sketch 46 (44423) - http://www.bohemiancoding.com/sketch -->
    <title>Artboard 2</title>
    <desc>Created with Sketch.</desc>
    <defs></defs>
    <g id="Visual-Design" stroke="none" stroke-width="1" fill="none" fill-rule="evenodd">
        <g id="Artboard-2" stroke-width="2" stroke="#00B3EB" fill-rule="nonzero">
            <g id="noun_216834_cc" transform="translate(4.000000, 3.000000)">
                <g id="Group">
                    <g id="Group-4">
                        <g>
                            <path d="M0.141330433,26.6576087 L2.22107306,23.1638199 C2.42904733,22.7445652 2.42904733,22.3253106 2.22107306,21.9759317 L0.210655188,18.4122671 C-0.0666438297,17.8532609 0.072005679,17.2243789 0.55727896,16.875 L3.88486717,14.5690994 C4.23149094,14.359472 4.37014045,13.9402174 4.37014045,13.5209627 L4.09284143,9.39829193 C4.02351668,8.76940994 4.4394652,8.21040373 5.06338799,8.14052795 L9.1535485,7.44177019 C9.56949703,7.37189441 9.9161208,7.0923913 10.0547703,6.74301242 L11.5799149,2.89984472 C11.7878892,2.34083851 12.411812,2.0613354 12.96641,2.20108696 L16.8485962,3.38897516 C17.2645448,3.45885093 17.6804933,3.38897516 17.9577923,3.10947205 L20.9387567,0.314440994 C21.42403,-0.104813665 22.1172776,-0.104813665 22.5332261,0.314440994 L25.5141905,3.10947205 C25.7914896,3.38897516 26.2074381,3.52872671 26.6233866,3.38897516 L30.5055728,2.20108696 C31.0601709,2.0613354 31.6840937,2.34083851 31.8920679,2.89984472 L33.4172125,6.74301242 C33.555862,7.0923913 33.9024858,7.37189441 34.3184343,7.44177019 L38.3392701,8.07065217 C38.8938681,8.21040373 39.3791414,8.69953416 39.3098167,9.32841615 L39.0325176,13.451087 C39.0325176,13.8703416 39.1711671,14.2895963 39.5177909,14.4992236 L42.8453791,16.8051242 C43.3306524,17.1545031 43.4693019,17.7833851 43.1920029,18.3423913 L41.181585,21.9060559 C40.9736108,22.3253106 40.9736108,22.7445652 41.181585,23.0939441 L43.1920029,26.6576087 C43.4693019,27.2166149 43.3306524,27.8454969 42.8453791,28.1948758 L39.5177909,30.5007764 C39.1711671,30.7104037 39.0325176,31.1296584 39.0325176,31.548913 L39.1711671,35.6715839 C39.2404919,36.3004658 38.8245434,36.859472 38.2006206,36.9293478 L34.1797848,37.5582298 C33.7638363,37.6281056 33.4172125,37.9076087 33.278563,38.2569876 L31.7534184,42.1001553 C31.5454442,42.6591615 30.9215214,42.9386646 30.3669233,42.798913 L26.4847371,41.6110248 C26.0687886,41.5411491 25.65284,41.6110248 25.375541,41.890528 L22.3945766,44.685559 C21.9093033,45.1048137 21.2160558,45.1048137 20.8001072,44.685559 L17.8191428,41.890528 C17.5418438,41.6110248 17.1258953,41.4712733 16.7099467,41.6110248 L12.8277605,42.798913 C12.2731624,42.9386646 11.6492397,42.6591615 11.4412654,42.1001553 L9.9161208,38.2569876 C9.77747129,37.9076087 9.43084752,37.6281056 9.01489899,37.5582298 L4.99406324,36.9293478 C4.4394652,36.7895963 3.95419192,36.3004658 4.02351668,35.6715839 L4.3008157,31.548913 C4.37014045,31.1296584 4.16216619,30.7104037 3.81554242,30.5007764 L0.487954205,28.1948758 C0.00268092465,27.8454969 -0.135968584,27.2166149 0.141330433,26.6576087 Z M11.2858463,18.9134929 C10.0759358,18.9795232 9.53819776,20.4982203 10.4792393,21.2905839 L15.5205332,25.384463 L13.9745364,31.5913119 C13.6384501,32.7798574 14.9827951,33.7042817 15.9910539,33.0439786 L21.5028685,29.676433 L27.0819004,33.0439786 C28.0901592,33.7042817 29.367287,32.7798574 29.098418,31.5913119 L27.5524212,25.384463 L32.6609323,21.2905839 C33.6019738,20.4982203 33.0642358,18.9795232 31.8543253,18.9134929 L25.3342519,18.4512807 L22.8472136,12.5085531 C22.3766928,11.3860379 20.7634788,11.3860379 20.292958,12.5085531 L17.8059197,18.4512807 L11.2858463,18.9134929 Z" id="Combined-Shape"></path>
                        </g>
                    </g>
                </g>
            </g>
        </g>
    </g>
</svg>