<?xml version="1.0" encoding="UTF-8"?>
<svg width="50px" height="50px" viewBox="0 0 50 50" version="1.1" xmlns="http://www.w3.org/2000/svg" xmlns:xlink="http://www.w3.org/1999/xlink">
    <!-- Generator: Sketch 46.1 (44463) - http://www.bohemiancoding.com/sketch -->
    <title>Artboard 3</title>
    <desc>Created with Sketch.</desc>
    <defs></defs>
    <g id="Visual-Design" stroke="none" stroke-width="1" fill="none" fill-rule="evenodd">
        <g id="Artboard-3" stroke-width="2" stroke="#00B3EB" fill-rule="nonzero">
            <g id="noun_216834_cc" transform="translate(3.000000, 3.000000)">
                <g id="Group">
                    <g id="Group-4">
                        <g>
                            <path d="M0.141330433,26.6576087 C-0.135968584,27.2166149 0.00268092465,27.8454969 0.487954205,28.1948758 L3.81554242,30.5007764 C4.16216619,30.7104037 4.37014045,31.1296584 4.3008157,31.548913 L4.02351668,35.6715839 C3.95419192,36.3004658 4.4394652,36.7895963 4.99406324,36.9293478 L9.01489899,37.5582298 C9.43084752,37.6281056 9.77747129,37.9076087 9.9161208,38.2569876 L11.4412654,42.1001553 C11.6492397,42.6591615 12.2731624,42.9386646 12.8277605,42.798913 L16.7099467,41.6110248 C17.1258953,41.4712733 17.5418438,41.6110248 17.8191428,41.890528 L20.8001072,44.685559 C21.2160558,45.1048137 21.9093033,45.1048137 22.3945766,44.685559 L25.375541,41.890528 C25.65284,41.6110248 26.0687886,41.5411491 26.4847371,41.6110248 L30.3669233,42.798913 C30.9215214,42.9386646 31.5454442,42.6591615 31.7534184,42.1001553 L33.278563,38.2569876 C33.4172125,37.9076087 33.7638363,37.6281056 34.1797848,37.5582298 L38.2006206,36.9293478 C38.8245434,36.859472 39.2404919,36.3004658 39.1711671,35.6715839 L39.0325176,31.548913 C39.0325176,31.1296584 39.1711671,30.7104037 39.5177909,30.5007764 L42.8453791,28.1948758 C43.3306524,27.8454969 43.4693019,27.2166149 43.1920029,26.6576087 L41.181585,23.0939441 C40.9736108,22.7445652 40.9736108,22.3253106 41.181585,21.9060559 L43.1920029,18.3423913 C43.4693019,17.7833851 43.3306524,17.1545031 42.8453791,16.8051242 L39.5177909,14.4992236 C39.1711671,14.2895963 39.0325176,13.8703416 39.0325176,13.451087 L39.3098167,9.32841615 C39.3791414,8.69953416 38.8938681,8.21040373 38.3392701,8.07065217 L34.3184343,7.44177019 C33.9024858,7.37189441 33.555862,7.0923913 33.4172125,6.74301242 L31.8920679,2.89984472 C31.6840937,2.34083851 31.0601709,2.0613354 30.5055728,2.20108696 L26.6233866,3.38897516 C26.2074381,3.52872671 25.7914896,3.38897516 25.5141905,3.10947205 L22.5332261,0.314440994 C22.1172776,-0.104813665 21.42403,-0.104813665 20.9387567,0.314440994 L17.9577923,3.10947205 C17.6804933,3.38897516 17.2645448,3.45885093 16.8485962,3.38897516 L12.96641,2.20108696 C12.411812,2.0613354 11.7878892,2.34083851 11.5799149,2.89984472 L10.0547703,6.74301242 C9.9161208,7.0923913 9.56949703,7.37189441 9.1535485,7.44177019 L5.06338799,8.14052795 C4.4394652,8.21040373 4.02351668,8.76940994 4.09284143,9.39829193 L4.37014045,13.5209627 C4.37014045,13.9402174 4.23149094,14.359472 3.88486717,14.5690994 L0.55727896,16.875 C0.072005679,17.2243789 -0.0666438297,17.8532609 0.210655188,18.4122671 L2.22107306,21.9759317 C2.42904733,22.3253106 2.42904733,22.7445652 2.22107306,23.1638199 L0.141330433,26.6576087 Z" id="Combined-Shape"></path>
                        </g>
                    </g>
                </g>
            </g>
            <g id="noun_92235_cc" transform="translate(18.000000, 18.000000)">
                <g id="Rectangle-48">
                    <path d="M3.00133202,7.177047 L13.5337272,7.177047 L13.5337272,10.4161523 L-0.237773298,10.4161523 L-0.237773298,2.84017839 L3.00133202,2.84017839 L3.00133202,7.177047 Z" id="Shape" transform="translate(6.647977, 6.628165) rotate(-45.000000) translate(-6.647977, -6.628165) "></path>
                </g>
            </g>
        </g>
    </g>
</svg>