<?xml version="1.0" encoding="UTF-8"?>
<svg width="150px" height="150px" viewBox="0 0 150 150" version="1.1" xmlns="http://www.w3.org/2000/svg" xmlns:xlink="http://www.w3.org/1999/xlink">
    <!-- Generator: Sketch 42 (36781) - http://www.bohemiancoding.com/sketch -->
    <title>Artboard 2</title>
    <desc>Created with Sketch.</desc>
    <defs></defs>
    <g id="Visual-Design" stroke="none" stroke-width="1" fill="none" fill-rule="evenodd">
        <g id="noun_659295_cc-copy-2" transform="translate(11.000000, 11.000000)" fill-rule="nonzero" fill="#FF616F">
            <g id="Group">
                <path d="M127.921064,60.5553545 L121.348253,49.1535397 L121.348253,36.4103348 C121.348253,33.5934159 119.872724,30.9106359 117.324083,29.4351069 L106.324685,23.130574 L99.7518746,11.8628982 C98.2763456,9.44839624 95.7277046,7.83872826 92.7766467,7.83872826 L79.7651639,7.83872826 L68.631627,1.40005635 C66.2171251,-0.0754726262 63.1319281,-0.0754726262 60.5832872,1.40005635 L49.4497503,7.83872826 L36.7065455,7.83872826 C33.8896265,7.83872826 31.2068466,9.31425724 29.7313176,11.8628982 L23.2926457,22.996435 L11.8908309,29.4351069 C9.4763289,30.9106359 7.86666092,33.4592769 7.86666092,36.4103348 L7.86666092,49.5559567 L1.56212802,60.5553545 C0.891433025,61.7626055 0.489016031,63.2381345 0.489016031,64.5795244 C0.489016031,65.9209144 0.891433025,67.3964434 1.56212802,68.6036944 L7.86666092,79.4689532 L7.86666092,92.614575 C7.86666092,95.431494 9.3421899,98.1142739 11.8908309,99.5898029 L23.2926457,106.162614 L29.7313176,117.296151 C31.2068466,119.710653 33.7554875,121.320321 36.7065455,121.320321 L49.4497503,121.320321 L60.5832872,127.758993 C61.7905381,128.429688 63.2660671,128.832104 64.6074571,128.832104 C65.9488471,128.832104 67.4243761,128.429688 68.631627,127.758993 L79.7651639,121.320321 L92.7766467,121.320321 C95.5935656,121.320321 98.2763456,119.844792 99.7518746,117.296151 L106.324685,106.028475 L117.324083,99.7239419 C119.738585,98.2484129 121.348253,95.699772 121.348253,92.748714 L121.348253,80.0055092 L127.921064,68.6036944 C129.396593,66.0550534 129.396593,62.9698565 127.921064,60.5553545 Z M57.3639512,86.3100421 L36.0358505,64.9819414 L43.8159124,57.2018795 L57.3639512,70.7499183 L85.3990018,42.7148678 L93.1790637,50.4949296 L57.3639512,86.3100421 Z" id="Shape"></path>
            </g>
        </g>
        <g id="Artboard-2"></g>
    </g>
</svg>