<?xml version="1.0" encoding="UTF-8"?>
<svg width="100px" height="100px" viewBox="0 0 100 100" version="1.1" xmlns="http://www.w3.org/2000/svg" xmlns:xlink="http://www.w3.org/1999/xlink">
    <!-- Generator: Sketch 42 (36781) - http://www.bohemiancoding.com/sketch -->
    <title>Artboard 3</title>
    <desc>Created with Sketch.</desc>
    <defs></defs>
    <g id="Visual-Design" stroke="none" stroke-width="1" fill="none" fill-rule="evenodd">
        <g id="Artboard-3" fill-rule="nonzero" fill="#FF616F">
            <g id="Group-4" transform="translate(19.000000, 4.000000)">
                <path d="M25.930725,81.8197 C16.826875,80.65595 7.935825,77.0583 0.95,71.7649 L9.205975,59.698475 C14.92165,64.0376 20.21505,67.000175 26.456075,68.27365 L26.456075,51.4425 C11.214275,47.31285 3.699775,41.597175 3.699775,29.002075 L3.699775,28.789275 C3.699775,17.14845 12.590825,9.417825 25.930725,8.041275 L25.930725,1.9 L36.9398,1.9 L36.9398,8.35715 C44.4543,9.311425 50.80505,12.0612 56.627125,16.08445 L49.5349,28.470075 C45.302175,25.610575 40.75025,23.389475 36.4078,22.225725 L36.4078,38.3154 C52.5008,42.65785 59.380225,49.111675 59.380225,60.968625 L59.380225,61.1781 C59.380225,73.03505 50.2797,80.65595 36.9398,82.0325 L36.9398,92.5129 L25.930725,92.5129 L25.930725,81.8197 L25.930725,81.8197 Z M26.4594,35.665375 L26.4594,21.268125 C21.2724,21.9032 19.1577,24.4435 19.1577,27.831675 L19.1577,28.04115 C19.154375,31.43265 20.637325,33.550675 26.4594,35.665375 Z M36.4078,53.979475 L36.4078,68.799 C41.38865,68.057525 43.925625,65.8331 43.925625,62.02265 L43.925625,61.80985 C43.925625,58.3186 42.1268,56.0975 36.4078,53.979475 Z" id="Shape"></path>
            </g>
        </g>
    </g>
</svg>