<?xml version="1.0" encoding="UTF-8"?>
<svg width="96px" height="61px" viewBox="0 0 96 61" version="1.1" xmlns="http://www.w3.org/2000/svg" xmlns:xlink="http://www.w3.org/1999/xlink">
    <!-- Generator: Sketch 46.2 (44496) - http://www.bohemiancoding.com/sketch -->
    <title>Artboard 10</title>
    <desc>Created with Sketch.</desc>
    <defs>
        <path d="M2,2 L94,2 L94,58 L2,58 L2,2 Z M48.5,36.5661129 L87.8909801,6 L9.10901989,6 L48.5,36.5661129 Z M6,8.41466253 L6,52.4675491 L32.0795455,28.6447948 L6,8.41466253 Z M91,8.41466253 L64.9204545,28.6447948 L91,52.4675491 L91,8.41466253 L91,8.41466253 Z M35.1583807,31.0300573 L8.86754261,55 L88.1324574,55 L61.8416193,31.0300573 L49.7073864,40.4531306 C49.0016044,41.0043104 47.9983956,41.0043104 47.2926136,40.4531306 L35.1583807,31.0300573 L35.1583807,31.0300573 Z" id="path-1"></path>
    </defs>
    <g id="Visual-Design" stroke="none" stroke-width="1" fill="none" fill-rule="evenodd">
        <g id="Artboard-10">
            <g id="Combined-Shape">
                <use fill="#00B3EB" fill-rule="evenodd" xlink:href="#path-1"></use>
                <path stroke="#00B3EB" stroke-width="1.25" d="M1.375,1.375 L94.625,1.375 L94.625,58.625 L1.375,58.625 L1.375,1.375 Z M10.9339605,6.625 L9.49217551,5.50622195 L9.10901989,6.625 L10.9339605,6.625 Z M86.0660395,6.625 L87.8909801,6.625 L87.5078245,5.50622195 L86.0660395,6.625 Z M48.5,35.7750186 L48.1168444,36.0723348 L48.8831556,36.0723348 L48.5,35.7750186 Z M48.5,35.7750186 L10.9339605,6.625 L86.0660395,6.625 L48.5,35.7750186 Z M31.1101369,28.6838112 L31.6964695,29.1386346 L31.658021,28.1833382 L31.1101369,28.6838112 Z M6.625,51.050129 L5.57847556,52.0060925 L6.625,52.4675491 L6.625,51.050129 Z M6.625,9.69047576 L6.625,8.41466253 L5.61692407,8.90850242 L6.625,9.69047576 Z M6.625,9.69047576 L31.1101369,28.6838112 L6.625,51.050129 L6.625,9.69047576 Z M90.375,51.050129 L90.375,52.4675491 L91.4215244,52.0060925 L90.375,51.050129 Z M65.8898631,28.6838112 L65.341979,28.1833382 L65.3035305,29.1386346 L65.8898631,28.6838112 Z M90.375,9.69047576 L91.3830759,8.90850242 L90.375,8.41466253 L90.375,9.69047576 Z M90.375,9.69047576 L90.375,51.050129 L65.8898631,28.6838112 L90.375,9.69047576 Z M35.1906293,31.8464256 L10.4807204,54.375 L86.5192796,54.375 L61.8093706,31.8464256 L50.0920719,40.9457177 C49.1602182,41.6734481 47.8397818,41.6734481 46.9092725,40.9467647 L35.1906293,31.8464256 Z"></path>
            </g>
        </g>
    </g>
</svg>