<?xml version="1.0" encoding="UTF-8"?>
<svg width="96px" height="99px" viewBox="0 0 96 99" version="1.1" xmlns="http://www.w3.org/2000/svg" xmlns:xlink="http://www.w3.org/1999/xlink">
    <!-- Generator: Sketch 46.2 (44496) - http://www.bohemiancoding.com/sketch -->
    <title>Artboard 10 Copy</title>
    <desc>Created with Sketch.</desc>
    <defs></defs>
    <g id="Visual-Design" stroke="none" stroke-width="1" fill="none" fill-rule="evenodd">
        <g id="Artboard-10-Copy" stroke="#00B3EB" stroke-width="7" fill-rule="nonzero">
            <path d="M58.2342519,61.477142 C58.9154123,60.778055 59.6579024,60.0355338 60.5525237,59.1541626 C60.7962529,58.9140432 61.0446816,58.6700164 61.375203,58.3458761 C61.7835805,57.945509 62.0031437,57.7302432 62.1882406,57.5485722 C62.8394166,56.9094487 63.3142383,56.4404783 63.6988592,56.0583729 L63.7189568,56.0371969 C67.8287112,51.7429245 73.6986445,51.7429245 77.9395958,55.9816163 L77.9402553,55.9822756 L77.9395958,55.9816163 L88.2785047,66.3150169 C92.5929634,70.627177 92.53852,76.2862713 88.3570341,80.6469318 C87.7715515,81.2711139 87.1710786,81.8787688 86.3279437,82.7096687 C86.1251728,82.9094971 85.4345758,83.587422 85.3316549,83.6886809 C84.0705205,84.9294486 83.3089728,85.7117335 82.5831372,86.5338633 C79.3443274,90.2333882 74.9209213,91.7889426 69.8325648,91.4600657 C64.0619388,91.2093026 58.5544931,89.5255697 52.5182186,86.5086802 C41.0969462,80.9934772 31.0851584,73.1382481 22.7098648,63.1978783 C16.2973261,55.5614772 11.4059509,47.4998646 8.18268917,38.949277 C6.13418624,33.7520016 5.19521073,29.0931423 5.58653614,24.4009312 C5.92236703,20.7087595 7.35839313,17.5921927 10.0329013,15.0763569 C10.9884627,14.174363 11.9500936,13.2235055 13.2288536,11.9269039 C13.4646825,11.6877847 13.7054493,11.4429359 14.0263456,11.1160709 C14.425707,10.7091528 14.6427348,10.4880282 14.8260676,10.3014371 C15.4791027,9.63679597 15.9616524,9.14874593 16.384193,8.72765189 C20.4939475,4.43337948 26.3638808,4.43337948 30.604832,8.67207125 L40.9437409,19.0054719 C45.3010194,23.3604289 45.3010194,29.0634901 40.9437409,33.4184471 L34.5909174,39.767886 C34.741798,39.6170858 34.95158,39.2806382 35.0495588,38.7257206 C35.1329192,38.2535966 35.0930055,38.0173103 35.0632222,37.928008 L31.7430077,39.0353362 L34.9597491,37.6559978 C36.2196614,40.5942268 37.9319088,43.2834678 40.3242466,46.1783813 C44.8391797,51.7885508 49.9430845,56.4474371 55.6693939,60.1103364 C56.1460256,60.4134859 56.6745116,60.7008059 57.4732306,61.0999527 C57.6454311,61.186007 57.8171928,61.2710118 58.1761369,61.4483662 C58.1957278,61.4580614 58.2150971,61.4676521 58.2342519,61.477142 Z" id="Shape"></path>
        </g>
    </g>
</svg>