<?xml version="1.0" encoding="UTF-8"?>
<svg width="52px" height="52px" viewBox="0 0 52 52" version="1.1" xmlns="http://www.w3.org/2000/svg" xmlns:xlink="http://www.w3.org/1999/xlink">
    <!-- Generator: Sketch 44.1 (41455) - http://www.bohemiancoding.com/sketch -->
    <title>Artboard 3</title>
    <desc>Created with Sketch.</desc>
    <defs></defs>
    <g id="Visual-Design" stroke="none" stroke-width="1" fill="none" fill-rule="evenodd">
        <g id="Group-20" transform="translate(1.000000, 1.000000)">
            <g id="Group-5-Copy-3" fill="#1F8CEB">
                <circle id="Oval-4" cx="25" cy="25" r="25"></circle>
            </g>
            <g id="noun_693693_cc" transform="translate(15.000000, 15.000000)" fill-rule="nonzero" fill="#FFFFFF">
                <g id="Group">
                    <g id="Shape">
                        <path d="M7.45945946,2.97297297 C7.45945946,2.18918919 8.08108108,1.56756757 8.86486486,1.56756757 L12.2162162,1.56756757 C13,1.56756757 13.6216216,2.18918919 13.6216216,2.97297297 L13.6216216,4.54054054 L15.1081081,4.54054054 L15.1081081,2.97297297 C15.1081081,1.37837838 13.8108108,0.0810810811 12.2162162,0.0810810811 L8.86486486,0.0810810811 C7.27027027,0.0810810811 5.97297297,1.37837838 5.97297297,2.97297297 L5.97297297,4.54054054 L7.45945946,4.54054054 L7.45945946,2.97297297 L7.45945946,2.97297297 Z"></path>
                        <path d="M20.8918919,9.81081081 L12.8918919,12.5135135 L12.8918919,13.8108108 C12.8918919,14.3783784 12.4324324,14.8378378 11.8648649,14.8378378 L9.21621622,14.8378378 C8.64864865,14.8378378 8.18918919,14.3783784 8.18918919,13.8108108 L8.18918919,12.5135135 L0.189189189,9.81081081 L0.189189189,19.9189189 L20.9189189,19.9189189 L20.9189189,9.81081081 L20.8918919,9.81081081 Z"></path>
                        <path d="M8.18918919,11.1351351 C8.18918919,10.5675676 8.64864865,10.1081081 9.21621622,10.1081081 L11.8648649,10.1081081 C12.4324324,10.1081081 12.8918919,10.5675676 12.8918919,11.1351351 L12.8918919,11.4324324 L20.8918919,8.72972973 L20.8918919,5.62162162 L0.189189189,5.62162162 L0.189189189,8.75675676 L8.18918919,11.4594595 L8.18918919,11.1351351 Z"></path>
                        <path d="M9.21621622,11.1081081 C9.18918919,11.1081081 9.18918919,11.1351351 9.18918919,11.1351351 L9.18918919,13.7837838 C9.18918919,13.8108108 9.21621622,13.8108108 9.21621622,13.8108108 L11.8648649,13.8108108 C11.8918919,13.8108108 11.8918919,13.7837838 11.8918919,13.7837838 L11.8918919,11.1351351 C11.8918919,11.1081081 11.8648649,11.1081081 11.8648649,11.1081081 L9.21621622,11.1081081 L9.21621622,11.1081081 Z"></path>
                    </g>
                </g>
            </g>
        </g>
        <g id="Artboard-3"></g>
    </g>
</svg>