<?xml version="1.0" encoding="UTF-8"?>
<svg width="70px" height="70px" viewBox="0 0 70 70" version="1.1" xmlns="http://www.w3.org/2000/svg" xmlns:xlink="http://www.w3.org/1999/xlink">
    <!-- Generator: Sketch 43.1 (39012) - http://www.bohemiancoding.com/sketch -->
    <title>Artboard 2</title>
    <desc>Created with Sketch.</desc>
    <defs></defs>
    <g id="Visual-Design" stroke="none" stroke-width="1" fill="none" fill-rule="evenodd">
        <g id="Artboard-2">
            <g id="Group-43" transform="translate(3.000000, 3.000000)">
                <ellipse id="Oval-5-Copy" fill="#0F4482" cx="32" cy="32" rx="32" ry="32"></ellipse>
                <path d="M25.7954545,35.0681818 L25.7954545,37.2840909 L38.1818182,37.2840909 L38.1818182,35.0681818 L25.7954545,35.0681818 Z M25.7954545,30.6931818 L25.7954545,32.9090909 L38.1818182,32.9090909 L38.1818182,30.6931818 L25.7954545,30.6931818 Z M25.7954545,39.6704545 L25.7954545,41.8863636 L32.5568182,41.8863636 L32.5568182,39.6704545 L25.7954545,39.6704545 Z M40.5113636,47 L23.4090909,47 C21.5340909,47 20,45.4659091 20,43.5909091 L20,20.4090909 C20,18.5340909 21.5340909,17 23.4090909,17 L35.3409091,17 L35.7386364,17.1136364 C35.8522727,17.1704545 35.9090909,17.2272727 36.0227273,17.3409091 L43.5795455,25.0113636 C43.6931818,25.125 43.75,25.2386364 43.8068182,25.4090909 L43.8636364,25.8068182 L43.8636364,43.5909091 C43.9204545,45.4659091 42.3863636,47 40.5113636,47 Z M36.0227273,23.9886364 C36.0227273,24.6136364 36.5340909,25.125 37.1590909,25.125 L40.4545455,25.125 L36.0227273,20.5795455 L36.0227273,23.9886364 Z" id="Combined-Shape" fill="#FFFFFF"></path>
            </g>
        </g>
    </g>
</svg>