<?xml version="1.0" encoding="UTF-8"?>
<svg width="50px" height="50px" viewBox="0 0 50 50" version="1.1" xmlns="http://www.w3.org/2000/svg" xmlns:xlink="http://www.w3.org/1999/xlink">
    <!-- Generator: Sketch 46.2 (44496) - http://www.bohemiancoding.com/sketch -->
    <title>Artboard 5</title>
    <desc>Created with Sketch.</desc>
    <defs></defs>
    <g id="Visual-Design" stroke="none" stroke-width="1" fill="none" fill-rule="evenodd">
        <g id="Artboard-5" fill-rule="nonzero" fill="#EE7A81">
            <g id="noun_875439_cc" transform="translate(9.000000, 6.000000)">
                <g id="Group">
                    <path d="M11.4195076,0.170916404 C10.9353857,0.216758492 10.5660851,0.626182682 10.5681818,1.11473663 L10.5681818,2.53046697 L8.45454545,2.53046697 C7.935754,2.53051908 7.51520339,2.95305126 7.51515152,3.47428719 L7.51515152,4.41810742 L0.939393939,4.41810742 C0.910054019,4.41672424 0.880665678,4.41672424 0.851325758,4.41810742 C0.367203846,4.4639495 -0.00209673616,4.87337369 -4.55757936e-16,5.36192764 L1.21293763e-15,40.7551861 C-0.00479118109,41.0955615 0.173201036,41.4121617 0.46581995,41.5837543 C0.758438864,41.7553468 1.12034902,41.7553468 1.41296793,41.5837543 C1.70558684,41.4121617 1.88357906,41.0955615 1.87878788,40.7551861 L1.87878788,6.30574787 L7.51515152,6.30574787 L7.51515152,7.7214782 C7.51520339,8.24271413 7.935754,8.66524631 8.45454545,8.66529843 L22.5454545,8.66529843 C23.064246,8.66524631 23.4847966,8.24271413 23.4848485,7.7214782 L23.4848485,3.47428719 C23.4847966,2.95305126 23.064246,2.53051908 22.5454545,2.53046697 L20.4318182,2.53046697 L20.4318182,1.11473663 C20.4317663,0.593500701 20.0112157,0.17096852 19.4924242,0.170916404 L11.5075758,0.170916404 C11.4782358,0.169533234 11.4488475,0.169533234 11.4195076,0.170916404 Z M12.4469697,2.05855685 L18.5530303,2.05855685 L18.5530303,3.47428719 C18.5530822,3.99552312 18.9736328,4.4180553 19.4924242,4.41810742 L21.6060606,4.41810742 L21.6060606,6.77765798 L9.39393939,6.77765798 L9.39393939,4.41810742 L11.5075758,4.41810742 C12.0263672,4.4180553 12.4469178,3.99552312 12.4469697,3.47428719 L12.4469697,2.05855685 Z M22.6050992,4.92828473 C22.4508764,5.22823638 22.4676646,5.58807222 22.6491384,5.87221395 C22.8306122,6.15635569 23.1491938,6.32162341 23.4848485,6.30574787 L29.1212121,6.30574787 L29.1212121,39.8113658 L1.29166667,39.8113658 C0.952887472,39.8065521 0.637772051,39.985383 0.466984262,40.2793807 C0.296196472,40.5733784 0.296196472,40.9369938 0.466984262,41.2309915 C0.637772051,41.5249892 0.952887472,41.70382 1.29166667,41.6990063 L30.0606061,41.6990063 C30.5793975,41.6989542 30.9999481,41.276422 31,40.7551861 L31,5.36192764 C30.9999481,4.84069171 30.5793975,4.41815953 30.0606061,4.41810742 L23.4848485,4.41810742 C23.0611193,4.43384807 22.759322,4.62833307 22.6050992,4.92828473 Z M10.7296402,12.8977422 C10.4851564,12.918922 10.2586239,13.0353684 10.0984848,13.2221804 L6.53172348,17.1891748 L4.88778409,15.5374894 C4.65074767,15.2925493 4.30048091,15.1954098 3.97194917,15.2835009 C3.64341743,15.371592 3.38790257,15.6311633 3.30386,15.9621962 C3.21981743,16.2932291 3.32036569,16.6440515 3.56676136,16.8794838 L5.91524621,19.2390344 C6.09868064,19.421903 6.34898565,19.520786 6.60726223,19.5124152 C6.8655388,19.5040445 7.1089804,19.3891591 7.28030303,19.1947928 L11.5075758,14.4756917 C11.769935,14.1882374 11.8293152,13.7682649 11.6570143,13.4187731 C11.4847135,13.0692813 11.1162161,12.8622468 10.7296402,12.8977422 Z M14.4725379,15.7439501 C14.1368769,15.7596908 13.8350796,15.9541758 13.6808568,16.2541274 C13.5266339,16.5540791 13.5434222,16.9139149 13.724896,17.1980567 C13.9063698,17.4821984 14.2249513,17.6474661 14.5606061,17.6315906 L26.7727273,17.6315906 C27.1115065,17.6364043 27.4266219,17.4575734 27.5974097,17.1635757 C27.7681975,16.869578 27.7681975,16.5059626 27.5974097,16.2119649 C27.4266219,15.9179672 27.1115065,15.7391364 26.7727273,15.7439501 L14.5606061,15.7439501 C14.5312661,15.7425669 14.5018778,15.7425669 14.4725379,15.7439501 L14.4725379,15.7439501 Z M10.7296402,20.9202142 C10.4851564,20.9413939 10.2586239,21.0578403 10.0984848,21.2446524 L6.53172348,25.2116467 L4.88778409,23.5599613 C4.65074767,23.3150212 4.30048091,23.2178817 3.97194917,23.3059728 C3.64341743,23.3940639 3.38790257,23.6536352 3.30386,23.9846681 C3.21981743,24.3157011 3.32036569,24.6665234 3.56676136,24.9019557 L5.91524621,27.2615063 C6.09868064,27.4443749 6.34898565,27.5432579 6.60726223,27.5348871 C6.8655388,27.5265164 7.1089804,27.411631 7.28030303,27.2172647 L11.5075758,22.4981636 C11.769935,22.2107093 11.8293152,21.7907368 11.6570143,21.441245 C11.4847135,21.0917532 11.1162161,20.8847187 10.7296402,20.9202142 Z M14.4725379,23.766422 C14.1368769,23.7821627 13.8350796,23.9766477 13.6808568,24.2765993 C13.5266339,24.576551 13.5434222,24.9363868 13.724896,25.2205286 C13.9063698,25.5046703 14.2249513,25.669938 14.5606061,25.6540625 L26.7727273,25.6540625 C27.1115065,25.6588762 27.4266219,25.4800453 27.5974097,25.1860476 C27.7681975,24.89205 27.7681975,24.5284345 27.5974097,24.2344368 C27.4266219,23.9404392 27.1115065,23.7616083 26.7727273,23.766422 L14.5606061,23.766422 C14.5312661,23.7650389 14.5018778,23.7650389 14.4725379,23.766422 Z M10.7296402,28.9426861 C10.4851564,28.9638658 10.2586239,29.0803122 10.0984848,29.2671243 L6.53172348,33.2341187 L4.88778409,31.5824333 C4.65074767,31.3374931 4.30048091,31.2403536 3.97194917,31.3284447 C3.64341743,31.4165359 3.38790257,31.6761071 3.30386,32.00714 C3.21981743,32.338173 3.32036569,32.6889953 3.56676136,32.9244276 L5.91524621,35.2839782 C6.09868064,35.4668468 6.34898565,35.5657298 6.60726223,35.557359 C6.8655388,35.5489883 7.1089804,35.434103 7.28030303,35.2397366 L11.5075758,30.5206355 C11.769935,30.2331812 11.8293152,29.8132087 11.6570143,29.4637169 C11.4847135,29.1142251 11.1162161,28.9071906 10.7296402,28.9426861 L10.7296402,28.9426861 Z M14.4725379,31.7888939 C14.1368769,31.8046346 13.8350796,31.9991196 13.6808568,32.2990712 C13.5266339,32.5990229 13.5434222,32.9588587 13.724896,33.2430005 C13.9063698,33.5271422 14.2249513,33.6924099 14.5606061,33.6765344 L26.7727273,33.6765344 C27.1115065,33.6813481 27.4266219,33.5025172 27.5974097,33.2085196 C27.7681975,32.9145219 27.7681975,32.5509064 27.5974097,32.2569088 C27.4266219,31.9629111 27.1115065,31.7840802 26.7727273,31.7888939 L14.5606061,31.7888939 C14.5312661,31.7875108 14.5018778,31.7875108 14.4725379,31.7888939 Z" id="Shape"></path>
                </g>
            </g>
        </g>
    </g>
</svg>