<?xml version="1.0" encoding="UTF-8"?>
<svg width="50px" height="54px" viewBox="0 0 50 54" version="1.1" xmlns="http://www.w3.org/2000/svg" xmlns:xlink="http://www.w3.org/1999/xlink">
    <!-- Generator: Sketch 46.1 (44463) - http://www.bohemiancoding.com/sketch -->
    <title>Artboard 7</title>
    <desc>Created with Sketch.</desc>
    <defs>
        <path d="M6,0 L46,0 L46,52 L6,52 L6,52 C2.6862915,52 4.05812251e-16,49.3137085 0,46 L0,6 L0,6 C-4.05812251e-16,2.6862915 2.6862915,6.08718376e-16 6,0 Z" id="path-1"></path>
    </defs>
    <g id="Visual-Design" stroke="none" stroke-width="1" fill="none" fill-rule="evenodd">
        <g id="Artboard-7">
            <g id="Group" transform="translate(2.000000, 1.000000)">
                <g id="Rectangle-5">
                    <use fill="#FFFFFF" fill-rule="evenodd" xlink:href="#path-1"></use>
                    <path stroke="#00B3EB" stroke-width="2" d="M45,51 L45,1 L6,1 C3.23857625,1 1,3.23857625 1,6 L1,46 C1,48.7614237 3.23857625,51 6,51 L45,51 Z"></path>
                </g>
                <path d="M6.66666667,3 L6.66666667,50.2941176" id="Line-3" stroke="#00B3EB" stroke-width="2" stroke-linecap="square"></path>
                <g id="Group-33" transform="translate(13.000000, 18.000000)" stroke="#00B3EB" stroke-width="2">
                    <path d="M0,14 L5.57142857,3.55271368e-15 L8.82142857,1.77635684e-15 L13.7142857,11.6548223 L20.3928571,3.02030457 L14.3928571,3.02030457 L14.3928571,1.77635684e-15 L24.4285714,0 L24.4285714,2.34517766 L17.8928571,10.9796954 L25,10.9796954 L25,14 L10.7857143,14 L9.89285714,11.4771574 L4.64285714,11.4771574 L3.78571429,14 L0,14 Z M8.89285714,8.72542819 L7.28571429,3.99953986 L5.57142857,8.72542819 L8.89285714,8.72542819 Z" id="Combined-Shape"></path>
                </g>
            </g>
        </g>
    </g>
</svg>