<?xml version="1.0" encoding="UTF-8"?>
<svg width="50px" height="50px" viewBox="0 0 50 50" version="1.1" xmlns="http://www.w3.org/2000/svg" xmlns:xlink="http://www.w3.org/1999/xlink">
    <!-- Generator: Sketch 46.2 (44496) - http://www.bohemiancoding.com/sketch -->
    <title>Artboard 5</title>
    <desc>Created with Sketch.</desc>
    <defs></defs>
    <g id="Visual-Design" stroke="none" stroke-width="1" fill="none" fill-rule="evenodd">
        <g id="Artboard-5" fill-rule="nonzero" stroke="#00B3EB" fill="#00B3EB">
            <g id="noun_971824_cc" transform="translate(3.000000, 12.000000)">
                <g id="Group">
                    <path d="M0.522421381,0.000732538037 C0.215083654,0.0615292011 -0.00541226199,0.342878613 0.000101126312,0.667205181 L0.000101126312,32.0747285 C0.000136623457,32.4427959 0.28793213,32.7411643 0.642956825,32.7412011 L16.774617,32.7412011 C19.2762122,32.7412011 20.9861948,33.677262 21.9174626,35.6153644 C22.0231024,35.8500174 22.2502734,36 22.5000506,36 C22.7498277,36 22.9769987,35.8500174 23.0826385,35.6153644 C24.0139063,33.677262 25.723889,32.7412011 28.2254841,32.7412011 L44.3571443,32.7412011 C44.712169,32.7411643 44.9999645,32.4427959 45,32.0747285 L45,0.667205181 C44.9999645,0.299137749 44.712169,0.00076933926 44.3571443,0.000732538037 L28.2254841,0.000732538037 C25.8205905,0.000732538037 23.5573,1.46858522 22.5000506,3.54136846 C21.4428011,1.46858522 19.1795106,0.000732538037 16.774617,0.000732538037 L0.642956825,0.000732538037 C0.622878629,-0.000244179346 0.602767298,-0.000244179346 0.582689103,0.000732538037 C0.562610908,-0.000244179346 0.542499576,-0.000244179346 0.522421381,0.000732538037 Z M1.02272727,1 L16.4235618,1 C18.9851587,1 21.4772727,3.27850639 21.4772727,5.65454545 L21.4772727,33 C20.2305458,31.701703 18.4872554,31.0051948 16.4235618,31.0051948 L1.02272727,31.0051948 L1.02272727,1 Z M28.5764382,1 L43.9772727,1 L43.9772727,31.0051948 L28.5764382,31.0051948 C26.5127446,31.0051948 24.7694542,31.701703 23.5227273,33 L23.5227273,5.65454545 C23.5227273,3.27850639 26.0148413,1 28.5764382,1 Z" id="Shape"></path>
                </g>
            </g>
        </g>
    </g>
</svg>