<?xml version="1.0" encoding="UTF-8"?>
<svg width="70px" height="70px" viewBox="0 0 70 70" version="1.1" xmlns="http://www.w3.org/2000/svg" xmlns:xlink="http://www.w3.org/1999/xlink">
    <!-- Generator: Sketch 43.1 (39012) - http://www.bohemiancoding.com/sketch -->
    <title>Artboard 2</title>
    <desc>Created with Sketch.</desc>
    <defs></defs>
    <g id="Visual-Design" stroke="none" stroke-width="1" fill="none" fill-rule="evenodd">
        <g id="Artboard-2">
            <g id="Group-12" transform="translate(3.000000, 3.000000)">
                <ellipse id="Oval-5" fill="#FF616F" cx="32" cy="32" rx="32" ry="32"></ellipse>
                <path d="M47.3401408,30.6923803 C46.7525548,21.9887616 38.7834187,15.7456596 30.1899725,17.2146248 C22.8451466,18.4632452 17.5201478,25.1837609 18.0342856,32.6754832 C18.2913546,36.7151375 20.1642851,40.2406539 22.955319,42.7011705 C22.2208364,43.9497909 21.6699744,44.6842735 20.5315264,45.7125491 C20.0173886,46.1532387 20.3479058,46.9978937 21.0089401,46.9978937 C22.955319,47.0346178 25.6361804,46.5939283 27.4356628,45.4554802 C29.8594553,46.3735835 32.5403167,46.7041006 35.2946264,46.1899628 C42.6027282,44.83117 47.8542787,38.1106544 47.3401408,30.6923803 Z M28.2803177,33.4834141 C27.4723869,33.4834141 26.8113526,32.8223798 26.8113526,32.0144489 C26.8113526,31.2065181 27.4723869,30.5454837 28.2803177,30.5454837 C29.0882486,30.5454837 29.7492829,31.2065181 29.7492829,32.0144489 C29.7492829,32.8223798 29.0882486,33.4834141 28.2803177,33.4834141 Z M32.6872132,33.4834141 C31.8792824,33.4834141 31.2182481,32.8223798 31.2182481,32.0144489 C31.2182481,31.2065181 31.8792824,30.5454837 32.6872132,30.5454837 C33.4951441,30.5454837 34.1561784,31.2065181 34.1561784,32.0144489 C34.1561784,32.8223798 33.4951441,33.4834141 32.6872132,33.4834141 Z M37.0941088,33.4834141 C36.2861779,33.4834141 35.6251436,32.8223798 35.6251436,32.0144489 C35.6251436,31.2065181 36.2861779,30.5454837 37.0941088,30.5454837 C37.9020396,30.5454837 38.5630739,31.2065181 38.5630739,32.0144489 C38.5630739,32.8223798 37.9020396,33.4834141 37.0941088,33.4834141 Z" id="Shape" fill="#FFFFFF" fill-rule="nonzero"></path>
            </g>
        </g>
    </g>
</svg>