<?xml version="1.0" encoding="UTF-8"?>
<svg width="55px" height="55px" viewBox="0 0 55 55" version="1.1" xmlns="http://www.w3.org/2000/svg" xmlns:xlink="http://www.w3.org/1999/xlink">
    <!-- Generator: Sketch 46.1 (44463) - http://www.bohemiancoding.com/sketch -->
    <title>Artboard 4</title>
    <desc>Created with Sketch.</desc>
    <defs></defs>
    <g id="Visual-Design" stroke="none" stroke-width="1" fill="none" fill-rule="evenodd">
        <g id="Artboard-4" stroke="#00B3EB" stroke-width="2" fill="#FFFFFF" fill-rule="nonzero">
            <g id="Group-6" transform="translate(3.000000, 5.000000)">
                <path d="M16.8560713,6.52991178 C16.8560713,4.76012261 18.38554,3.35649671 20.3140006,3.35649671 L28.559832,3.35649671 C30.4882925,3.35649671 32.0177613,4.76012261 32.0177613,6.52991178 L32.0177613,10.0694901 L35.6751865,10.0694901 L35.6751865,6.52991178 C35.6751865,2.92930622 32.4832518,0 28.559832,0 L20.3140006,0 C16.3905808,0 13.198646,2.92930622 13.198646,6.52991178 L13.198646,10.0694901 L16.8560713,10.0694901 L16.8560713,6.52991178 L16.8560713,6.52991178 Z" id="Shape"></path>
                <path d="M49.8827466,19.0563528 L30.6069072,25.7872954 L30.6069072,29.0181478 C30.6069072,30.4316458 29.4998489,31.575906 28.1323062,31.575906 L21.7504404,31.575906 C20.3828978,31.575906 19.2758394,30.4316458 19.2758394,29.0181478 L19.2758394,25.7872954 L0,19.0563528 L0,44.2300781 L49.9478677,44.2300781 L49.9478677,19.0563528 L49.8827466,19.0563528 Z" id="Shape"></path>
                <path d="M19.3010037,25.0519737 C19.3010037,23.5835064 20.4095073,22.3947471 21.7788353,22.3947471 L28.1690324,22.3947471 C29.5383604,22.3947471 30.646864,23.5835064 30.646864,25.0519737 L30.646864,25.8211708 L49.9478677,18.8284694 L49.9478677,10.7868627 L0,10.7868627 L0,18.8983964 L19.3010037,25.8910979 L19.3010037,25.0519737 Z" id="Shape"></path>
            </g>
        </g>
    </g>
</svg>