<?xml version="1.0" encoding="UTF-8"?>
<svg width="51px" height="50px" viewBox="0 0 51 50" version="1.1" xmlns="http://www.w3.org/2000/svg" xmlns:xlink="http://www.w3.org/1999/xlink">
    <!-- Generator: Sketch 46.1 (44463) - http://www.bohemiancoding.com/sketch -->
    <title>Artboard 2</title>
    <desc>Created with Sketch.</desc>
    <defs></defs>
    <g id="Visual-Design" stroke="none" stroke-width="1" fill="none" fill-rule="evenodd">
        <g id="Artboard-2" stroke="#4182D7" stroke-width="2" fill="#FFFFFF">
            <g id="Group-11" transform="translate(2.000000, 6.000000)">
                <path d="M27.0170558,7.5 L31,7.5 L31,3.5 L18.2678571,3.5 L18.2678571,0 L13.2857143,0 L13.2857143,3.5 L0,3.5 L0,7.5 L22.6278761,7.5 C22.4155943,9.37658327 21.4865717,14.0190878 17.1607143,17.2159091 C17.1607143,17.2159091 13.8392857,14.6590909 11.625,10.0568182 L7.19642857,10.0568182 C7.75,13.125 13.2513929,18.7924432 14.3928571,19.7727273 C9.41071429,23.3522727 8.30357143,23.8636364 3.875,26.4204545 L6.08928571,29.4886364 C6.08928571,29.4886364 13.8392857,25.3977273 17.1607143,22.8409091 C20.4821429,25.3977273 23.8035714,27.9545455 29.3392857,30 L31,26.4204545 C26.0178571,24.375 23.25,22.3295455 20.4821429,19.7727273 C25.3456086,15.280083 26.67779,9.60344021 27.0170558,7.5 Z" id="Combined-Shape"></path>
                <g id="Group" transform="translate(22.000000, 11.000000)" fill-rule="nonzero">
                    <path d="M10.9036307,0.421620867 L15.0774953,0.421620867 L24.9849402,26.9837355 L20.934225,26.9837355 L18.084348,19.0277019 L7.37563947,19.0277019 L4.41529809,26.9837355 L0.624623506,26.9837355 L10.9036307,0.421620867 Z M17.4894582,15.5999721 L12.8949274,4.21620867 L8.12010558,15.5999721 L17.4894582,15.5999721 Z" id="Combined-Shape"></path>
                </g>
            </g>
        </g>
    </g>
</svg>