<?xml version="1.0" encoding="UTF-8"?>
<svg width="51px" height="40px" viewBox="0 0 51 40" version="1.1" xmlns="http://www.w3.org/2000/svg" xmlns:xlink="http://www.w3.org/1999/xlink">
    <!-- Generator: Sketch 46 (44423) - http://www.bohemiancoding.com/sketch -->
    <title>Artboard</title>
    <desc>Created with Sketch.</desc>
    <defs></defs>
    <g id="Visual-Design" stroke="none" stroke-width="1" fill="none" fill-rule="evenodd">
        <g id="Artboard" stroke="#4182D7" stroke-width="2" fill-rule="nonzero">
            <path d="M44.8310977,39.5116328 L22.1638018,16.9225055 L26.5109544,12.5903441 C27.209604,13.2092243 28.3740198,13.2092243 28.9950417,12.5129841 C29.6936912,11.8167438 29.6936912,10.6563435 28.9950417,9.96010323 L19.6797146,0.522180169 C18.981065,-0.174060056 17.8166491,-0.174060056 17.1179996,0.522180169 C16.4193501,1.21842039 16.4193501,2.37882077 17.1179996,3.075061 L5.00807438,14.9885049 C4.38705257,14.3696247 3.22263668,14.3696247 2.52398715,15.0658649 C1.82533762,15.7621051 1.82533762,16.9225055 2.52398715,17.6187457 L11.9945697,27.0566688 C12.6932192,27.752909 13.8576351,27.752909 14.5562847,27.0566688 C15.2549342,26.3604285 15.2549342,25.2000282 14.5562847,24.5037879 L18.981065,20.2489866 L41.648361,42.8381139 C42.5798937,43.7664342 45.7626304,40.4399531 44.8310977,39.5116328 Z" id="Shape" transform="translate(23.500000, 21.500000) rotate(-15.000000) translate(-23.500000, -21.500000) "></path>
        </g>
    </g>
</svg>