<?xml version="1.0" encoding="UTF-8"?>
<svg width="34px" height="50px" viewBox="0 0 34 50" version="1.1" xmlns="http://www.w3.org/2000/svg" xmlns:xlink="http://www.w3.org/1999/xlink">
    <!-- Generator: Sketch 46 (44423) - http://www.bohemiancoding.com/sketch -->
    <title>Artboard 2</title>
    <desc>Created with Sketch.</desc>
    <defs></defs>
    <g id="Visual-Design" stroke="none" stroke-width="1" fill="none" fill-rule="evenodd">
        <g id="Artboard-2" stroke="#00B3EB" stroke-width="2" fill-rule="nonzero">
            <path d="M16.9825,3 C9.2498912,3 3,9.16826983 3,16.8001258 C3,18.552797 3.5185264,20.7789229 4.12,22.3201761 L15.8470588,47.7615129 C15.8470588,47.7615129 16.6865242,48.2981089 16.9825,47.7615129 C21.3641713,39.8176633 29.88,22.3201761 29.88,22.3201761 C30.4848504,20.7783157 31,18.5535698 31,16.8001258 C31,9.16826983 24.7152096,3 16.9825,3 Z M16.9821833,9.70584463 C21.0759689,9.70584463 24.4117647,13.0778722 24.4117647,17.2499198 C24.4117647,21.4220255 21.0759689,24.793995 16.9821833,24.793995 C12.8884547,24.793995 9.58823529,21.4220255 9.58823529,17.2499198 C9.58823529,13.0778722 12.8884547,9.70584463 16.9821833,9.70584463 Z" id="Shape"></path>
        </g>
    </g>
</svg>