<?xml version="1.0" encoding="UTF-8"?>
<svg width="100px" height="100px" viewBox="0 0 100 100" version="1.1" xmlns="http://www.w3.org/2000/svg" xmlns:xlink="http://www.w3.org/1999/xlink">
    <!-- Generator: Sketch 42 (36781) - http://www.bohemiancoding.com/sketch -->
    <title>Artboard 8</title>
    <desc>Created with Sketch.</desc>
    <defs></defs>
    <g id="Visual-Design" stroke="none" stroke-width="1" fill="none" fill-rule="evenodd">
        <g id="Artboard-8">
            <g id="Group-2" transform="translate(3.000000, 2.000000)">
                <ellipse id="Oval-2" fill="#1F8CEB" cx="47.5" cy="47.5" rx="47.5" ry="47.5"></ellipse>
                <path d="M62.8774617,61.865309 L66.2635556,61.865309 L66.2635556,68.7522796 L28.5,68.7522796 L28.5,61.865309 L31.9434853,61.865309 L31.9434853,47.5174536 L30.2217427,47.5174536 L30.2217427,42.3522256 L33.665228,42.3522256 C33.665228,34.5469922 38.0843674,28.0617616 43.9956839,26.2252361 L43.9956839,22.265228 L45.7174265,22.265228 L45.7174265,17.1 L49.1609119,17.1 L49.1609119,22.265228 L50.8826545,22.265228 L50.8826545,26.2252361 C56.793971,28.0617616 61.155719,34.6043837 61.155719,42.3522256 L64.5992043,42.3522256 L64.5992043,47.5174536 L62.8774617,47.5174536 L62.8774617,61.865309 Z M41.4130699,61.865309 L41.4130699,47.5174536 L36.2478419,47.5174536 L36.2478419,61.865309 L41.4130699,61.865309 Z M50.0217832,61.865309 L50.0217832,47.5174536 L44.8565552,47.5174536 L44.8565552,61.865309 L50.0217832,61.865309 Z M58.573105,61.865309 L58.573105,47.5174536 L53.4078771,47.5174536 L53.4078771,61.865309 L58.573105,61.865309 Z" id="Shape" fill="#CDDAE8" fill-rule="nonzero"></path>
            </g>
        </g>
    </g>
</svg>