<?xml version="1.0" encoding="UTF-8"?>
<svg width="43px" height="50px" viewBox="0 0 43 50" version="1.1" xmlns="http://www.w3.org/2000/svg" xmlns:xlink="http://www.w3.org/1999/xlink">
    <!-- Generator: Sketch 46 (44423) - http://www.bohemiancoding.com/sketch -->
    <title>Artboard</title>
    <desc>Created with Sketch.</desc>
    <defs></defs>
    <g id="Visual-Design" stroke="none" stroke-width="1" fill="none" fill-rule="evenodd">
        <g id="Artboard" stroke="#00B3EB" stroke-width="2">
            <path d="M22.2622037,47.8662222 C21.7669244,48.0430048 21.2277172,48.0446223 20.7314268,47.870814 C2.55570274,41.4469047 2.83934669,26.3491108 3.0464518,15.3288233 C3.08697236,14.194652 3.08697236,13.0972151 3.08697236,12.0411042 L3.08697236,10.9344836 C3.08697236,10.226947 3.64936427,9.6533752 4.34310984,9.6533752 L5.4281605,9.6533752 C11.5467657,9.6533752 15.9995254,7.94523063 19.8669881,4.11108893 L20.6188697,3.36262774 C21.1064204,2.87912409 21.8827078,2.87912409 22.3702585,3.36262774 L23.1266424,4.11108893 C26.9896028,7.94523063 31.4423626,9.6533752 37.56547,9.6533752 L38.6595253,9.6533752 C38.9926736,9.6533752 39.3121771,9.78834874 39.5477486,10.0286032 C39.7833201,10.2688576 39.9156627,10.5947125 39.9156627,10.9344836 L39.9156627,12.0365124 C39.9156627,13.0926233 39.9561833,14.194652 39.9561833,15.3242315 C40.1542838,26.3491108 40.4379278,41.4423129 22.2622037,47.8662222 Z M24.2747073,23.0082034 L24.2747073,16.6956522 L18.7428541,16.6956522 L18.7428541,23.0082034 L12.7368421,23.0082034 L12.7368421,27.8090648 L18.7428541,27.8090648 L18.7428541,34.3043478 L24.2747073,34.3043478 L24.2747073,27.8090648 L30.2631579,27.8090648 L30.2631579,23.0082034 L24.2747073,23.0082034 Z" id="Combined-Shape"></path>
        </g>
    </g>
</svg>