<?xml version="1.0" encoding="UTF-8"?>
<svg width="69px" height="81px" viewBox="0 0 69 81" version="1.1" xmlns="http://www.w3.org/2000/svg" xmlns:xlink="http://www.w3.org/1999/xlink">
    <!-- Generator: Sketch 46.2 (44496) - http://www.bohemiancoding.com/sketch -->
    <title>Artboard 8</title>
    <desc>Created with Sketch.</desc>
    <defs></defs>
    <g id="Visual-Design" stroke="none" stroke-width="1" fill="none" fill-rule="evenodd">
        <g id="Artboard-8" fill="#454545">
            <g id="Group" transform="translate(2.000000, 1.000000)">
                <path d="M0,64 L3.66139241,64 L5.75949367,70.2307692 L6.5,72.6769231 L6.58227848,72.6769231 L7.32278481,70.2307692 L9.33860759,64 L13,64 L13,79 L9.70886076,79 L9.70886076,74.5692308 C9.70886076,74.1846135 9.72600194,73.7615408 9.76028481,73.3 C9.79456768,72.8384592 9.83227828,72.365387 9.87341772,71.8807692 C9.91455717,71.3961514 9.96255247,70.9230792 10.0174051,70.4615385 C10.0722577,69.9999977 10.120253,69.5846172 10.1613924,69.2153846 L10.0791139,69.2153846 L8.96835443,72.7230769 L7.11708861,77.7769231 L5.80063291,77.7769231 L3.94936709,72.7230769 L2.87974684,69.2153846 L2.79746835,69.2153846 C2.8386078,69.5846172 2.8866031,69.9999977 2.9414557,70.4615385 C2.99630829,70.9230792 3.04430359,71.3961514 3.08544304,71.8807692 C3.12658248,72.365387 3.16429308,72.8384592 3.19857595,73.3 C3.23285882,73.7615408 3.25,74.1846135 3.25,74.5692308 L3.25,79 L0,79 L0,64 Z M21,64 L29.7906977,64 L29.7906977,67.3230769 L24.6,67.3230769 L24.6,69.6769231 L29.0372093,69.6769231 L29.0372093,73 L24.6,73 L24.6,75.6769231 L30,75.6769231 L30,79 L21,79 L21,64 Z M37,64 L40.6666667,64 L43.6666667,70.6923077 L44.9583333,74.0615385 L45.0416667,74.0615385 C44.9999998,73.6615365 44.9513892,73.2230793 44.8958333,72.7461538 C44.8402775,72.2692284 44.7916669,71.7807717 44.75,71.2807692 C44.7083331,70.7807667 44.6701391,70.2807717 44.6354167,69.7807692 C44.6006943,69.2807667 44.5833333,68.8000023 44.5833333,68.3384615 L44.5833333,64 L48,64 L48,79 L44.3333333,79 L41.3333333,72.2846154 L40.0416667,68.9384615 L39.9583333,68.9384615 C40.0416671,69.8000043 40.1388883,70.7384565 40.25,71.7538462 C40.3611117,72.7692358 40.4166667,73.7384569 40.4166667,74.6615385 L40.4166667,79 L37,79 L37,64 Z M55,64 L58.5298507,64 L58.5298507,72.0664653 C58.5298507,73.3806712 58.6906078,74.3058886 59.0121269,74.842145 C59.3336459,75.3784015 59.8432801,75.6465257 60.5410448,75.6465257 C61.2388095,75.6465257 61.7552844,75.3784015 62.0904851,74.842145 C62.4256858,74.3058886 62.5932836,73.3806712 62.5932836,72.0664653 L62.5932836,64 L66,64 L66,71.6132931 C66,74.1359643 65.5553527,75.9977281 64.6660448,77.1986405 C63.7767368,78.3995528 62.4017506,79 60.5410448,79 C58.6666573,79 57.2745692,78.3995528 56.3647388,77.1986405 C55.4549084,75.9977281 55,74.1359643 55,71.6132931 L55,64 Z" id="MENU"></path>
                <rect id="Rectangle" x="0" y="22" width="66" height="10"></rect>
                <rect id="Rectangle-Copy-2" x="0" y="44" width="66" height="10"></rect>
                <rect id="Rectangle-Copy" x="0" y="0" width="66" height="10"></rect>
            </g>
        </g>
    </g>
</svg>