<?xml version="1.0" encoding="UTF-8"?>
<svg width="32px" height="30px" viewBox="0 0 32 30" version="1.1" xmlns="http://www.w3.org/2000/svg" xmlns:xlink="http://www.w3.org/1999/xlink">
    <!-- Generator: Sketch 43.1 (39012) - http://www.bohemiancoding.com/sketch -->
    <title>Artboard</title>
    <desc>Created with Sketch.</desc>
    <defs></defs>
    <g id="Page-1" stroke="none" stroke-width="1" fill="none" fill-rule="evenodd">
        <g id="Artboard" fill-rule="nonzero" fill="#FF616F">
            <g id="testimonial-quote" transform="translate(1.000000, 2.000000)">
                <path d="M21.8429003,13.5045317 C21.8429003,14.4713039 22.4169127,14.984894 23.5649547,15.0453172 L25.3776435,15.1359517 C26.5861088,15.1963749 27.6586056,15.7703873 28.5951662,16.858006 C29.5317267,17.9456248 30,19.1842831 30,20.5740181 C30,22.2658695 29.3957764,23.6857949 28.1873112,24.8338369 C26.9788459,25.9818789 25.468287,26.5558912 23.6555891,26.5558912 C21.5407749,26.5558912 19.8036322,25.7250838 18.4441088,24.0634441 C17.0845853,22.4018044 16.4048338,20.2719163 16.4048338,17.673716 C16.4048338,12.839855 18.3081381,7.88522175 22.1148036,2.80966767 C23.5045387,0.93654653 24.7129858,0 25.7401813,0 C26.8882233,0 27.4622356,0.60422356 27.4622356,1.81268882 C27.4622356,2.29607492 27.1299127,2.96072085 26.4652568,3.80664653 C24.8338287,5.86103746 23.4743257,8.3081429 22.3867069,11.1480363 C22.0241674,12.1148085 21.8429003,12.9002991 21.8429003,13.5045317 Z M5.34743202,13.5045317 C5.34743202,14.4713039 5.92144441,14.984894 7.0694864,15.0453172 L8.88217523,15.1359517 C10.1510637,15.1963749 11.2537718,15.7703873 12.1903323,16.858006 C13.1268929,17.9456248 13.5951662,19.1842831 13.5951662,20.5740181 C13.5951662,22.2658695 12.9909426,23.6857949 11.7824773,24.8338369 C10.5740121,25.9818789 9.0634532,26.5558912 7.25075529,26.5558912 C5.13594109,26.5558912 3.39879834,25.7250838 2.03927492,24.0634441 C0.67975151,22.4018044 0,20.2719163 0,17.673716 C0,12.839855 1.90330423,7.88522175 5.70996979,2.80966767 C7.09970483,0.93654653 8.30815196,0 9.3353474,0 C10.4833894,0 11.0574018,0.60422356 11.0574018,1.81268882 C11.0574018,2.29607492 10.7250789,2.96072085 10.060423,3.80664653 C8.8519577,5.3172281 7.76435529,7.06947644 6.79758308,9.0634441 C5.83081088,11.0574118 5.34743202,12.5377595 5.34743202,13.5045317 Z" id="“"></path>
            </g>
        </g>
    </g>
</svg>