<?xml version="1.0" encoding="UTF-8"?>
<svg width="52px" height="52px" viewBox="0 0 52 52" version="1.1" xmlns="http://www.w3.org/2000/svg" xmlns:xlink="http://www.w3.org/1999/xlink">
    <!-- Generator: Sketch 46.1 (44463) - http://www.bohemiancoding.com/sketch -->
    <title>Artboard 5</title>
    <desc>Created with Sketch.</desc>
    <defs></defs>
    <g id="Visual-Design" stroke="none" stroke-width="1" fill="none" fill-rule="evenodd">
        <g id="Artboard-5" fill-rule="nonzero" stroke="#4182D7" stroke-width="2">
            <g id="Group-5" transform="translate(3.000000, 3.000000)">
                <g id="noun_106844_cc">
                    <g id="Group">
                        <g id="Group-7">
                            <g>
                                <rect id="Rectangle-path" x="8.4375" y="0" width="5.625" height="5.625"></rect>
                                <rect id="Rectangle-path" x="30.9375" y="0" width="5.625" height="5.625"></rect>
                                <path d="M42.1875,2.8125 L39.375,2.8125 L39.375,5.625 C39.375,7.17890625 38.1164062,8.4375 36.5625,8.4375 L30.9375,8.4375 C29.3835937,8.4375 28.125,7.17890625 28.125,5.625 L28.125,2.8125 L16.875,2.8125 L16.875,5.625 C16.875,7.17890625 15.6164063,8.4375 14.0625,8.4375 L8.4375,8.4375 C6.88359375,8.4375 5.625,7.17890625 5.625,5.625 L5.625,2.8125 L2.8125,2.8125 C1.25859375,2.8125 0,4.07109375 0,5.625 L0,42.1875 C0,43.7414063 1.25859375,45 2.8125,45 L42.1875,45 C43.7414062,45 45,43.7414063 45,42.1875 L45,5.625 C45,4.07109375 43.7414062,2.8125 42.1875,2.8125 Z M19.6875,33.75 L11.25,25.3125 L15.46875,21.09375 L19.6875,25.3125 L29.53125,15.46875 L33.75,19.6875 L19.6875,33.75 Z" id="Shape"></path>
                            </g>
                        </g>
                    </g>
                </g>
            </g>
        </g>
    </g>
</svg>