<?xml version="1.0" encoding="UTF-8"?>
<svg width="50px" height="50px" viewBox="0 0 50 50" version="1.1" xmlns="http://www.w3.org/2000/svg" xmlns:xlink="http://www.w3.org/1999/xlink">
    <!-- Generator: Sketch 46.1 (44463) - http://www.bohemiancoding.com/sketch -->
    <title>Artboard 3</title>
    <desc>Created with Sketch.</desc>
    <defs></defs>
    <g id="Visual-Design" stroke="none" stroke-width="1" fill="none" fill-rule="evenodd">
        <g id="Artboard-3" stroke="#4182D7" stroke-width="2" fill-rule="nonzero">
            <path d="M37.346514,21.1217482 L37.346514,15.0343392 C37.346514,11.8033299 36.082206,8.80645161 33.8345473,6.5119667 C31.5400624,4.26430801 28.496358,3 25.3121748,3 C18.6628512,3 13.2778356,8.38501561 13.2778356,15.0343392 L13.2778356,21.1217482 C11.4047867,21.5900104 10,23.2757544 10,25.3361082 L10,43.6451613 C10,46.0332986 11.9667014,48 14.3548387,48 L36.3163371,48 C38.7044745,48 40.6711759,46.0332986 40.6711759,43.6451613 L40.6711759,25.289282 C40.6243496,23.2757544 39.219563,21.5900104 37.346514,21.1217482 Z M25.3121748,8.24453694 C27.1383975,8.24453694 28.8241415,8.94693028 30.0884495,10.2112383 C31.3527575,11.4755463 32.0551509,13.2081165 32.0551509,14.987513 L32.0551509,20.9344433 L18.4755463,20.9344433 L18.4755463,15.0343392 C18.5223725,11.2882414 21.566077,8.24453694 25.3121748,8.24453694 Z M26.8036752,35.3331021 L26.8036752,35.5532228 L26.8036752,38.4588156 C26.8036752,39.2952741 26.1433132,39.9996603 25.2628306,39.9996603 C24.426372,39.9996603 23.7219859,39.3392983 23.7219859,38.4588156 L23.7219859,35.5532228 L23.7219859,35.3331021 C22.8855274,34.8048125 22.3132136,33.8803057 22.3132136,32.8237265 C22.3132136,31.1948336 23.6339376,29.9181337 25.2188064,29.9181337 C26.8476994,29.9181337 28.1243992,31.2388577 28.1243992,32.8237265 C28.2124475,33.9243298 27.6401338,34.8488366 26.8036752,35.3331021 Z" id="Shape"></path>
        </g>
    </g>
</svg>