<?xml version="1.0" encoding="UTF-8"?>
<svg width="60px" height="50px" viewBox="0 0 60 50" version="1.1" xmlns="http://www.w3.org/2000/svg" xmlns:xlink="http://www.w3.org/1999/xlink">
    <!-- Generator: Sketch 46 (44423) - http://www.bohemiancoding.com/sketch -->
    <title>Artboard</title>
    <desc>Created with Sketch.</desc>
    <defs></defs>
    <g id="Visual-Design" stroke="none" stroke-width="1" fill="none" fill-rule="evenodd">
        <g id="Artboard" stroke="#4182D7" stroke-width="2">
            <g id="Group-6" transform="translate(3.000000, 3.000000)">
                <path d="M52.6617288,25.1397436 L40.1845895,38.9457338 C38.5444022,40.8129374 36.1426993,41.8314121 33.5652621,41.8314121 L29.4062157,41.8314121 L14.8202641,41.8314121 L11.5984675,45 L0,34.0796881 L8.31809287,26.1016363 C11.7742019,22.8198846 16.8704982,21.688246 21.4395915,23.2159581 L23.2555132,23.8383593 L34.502512,23.8383593 C36.494168,23.8383593 38.0757772,25.4226532 38.0171991,27.3464387 C37.958621,29.2136423 36.2598556,30.6847724 34.3267776,30.6847724 L27.590294,30.6847724 C26.8287784,30.6847724 37.8289488,31.3013843 38.5,30 C38.9473675,29.1324105 41.81297,25.9846129 47.0968075,20.5566075 C48.4441043,19.0854774 50.7286509,18.8591497 52.3102601,20.0473702 C53.8332912,21.3487545 54.0090256,23.6686135 52.6617288,25.1397436 Z" id="Path"></path>
                <path d="M31.2753036,0 C29.4013881,0 27.761712,1.06630212 26.8247542,2.62474368 C25.8877964,1.06630212 24.2481203,0 22.3742047,0 C19.4852516,0 17.1428571,2.4606972 17.1428571,5.49555707 C17.1428571,5.65960355 17.1428571,5.74162679 17.1428571,5.90567327 L17.1428571,5.90567327 C17.1428571,5.90567327 17.8455755,12.0574163 26.7466744,17.1428571 C35.7258531,12.0574163 36.4285714,5.90567327 36.4285714,5.90567327 L36.4285714,5.90567327 C36.4285714,5.74162679 36.4285714,5.65960355 36.4285714,5.49555707 C36.4285714,2.4606972 34.1642568,0 31.2753036,0 Z" id="Shape" fill-rule="nonzero"></path>
            </g>
        </g>
    </g>
</svg>