<?xml version="1.0" encoding="UTF-8"?>
<svg width="49px" height="49px" viewBox="0 0 49 49" version="1.1" xmlns="http://www.w3.org/2000/svg" xmlns:xlink="http://www.w3.org/1999/xlink">
    <!-- Generator: Sketch 46.2 (44496) - http://www.bohemiancoding.com/sketch -->
    <title>Artboard 6</title>
    <desc>Created with Sketch.</desc>
    <defs></defs>
    <g id="Visual-Design" stroke="none" stroke-width="1" fill="none" fill-rule="evenodd">
        <g id="Artboard-6" stroke="#00B3EB" stroke-width="2">
            <path d="M7.20550847,33.4589666 C8.49576916,34.6899758 9.88611543,35.6816072 11.376589,36.4338906 C12.8670625,37.186174 14.3686365,37.56231 15.8813559,37.56231 C17.7500093,37.56231 19.2404605,37.2203682 20.3527542,36.5364742 C21.4650479,35.8525802 22.0211864,34.8267546 22.0211864,33.4589666 C22.0211864,32.6382938 21.8877132,31.9088178 21.6207627,31.2705167 C21.3538122,30.6322157 20.8421648,30.0851087 20.0858051,29.6291793 C19.3294454,29.17325 18.2616594,28.8313081 16.8824153,28.6033435 C15.5031711,28.3753788 13.7012823,28.2613982 11.4766949,28.2613982 L11.4766949,20.0547112 C13.2563648,20.0547112 14.7356933,19.9407306 15.9147246,19.712766 C17.0937559,19.4848013 18.0391914,19.1542575 18.7510593,18.7211246 C19.4629273,18.2879918 19.9634519,17.775079 20.2526483,17.1823708 C20.5418447,16.5896627 20.6864407,15.905779 20.6864407,15.1306991 C20.6864407,12.486309 19.218235,11.1641337 16.2817797,11.1641337 C14.8580437,11.1641337 13.5900479,11.4604834 12.4777542,12.0531915 C11.3654605,12.6458996 10.1419558,13.5349485 8.80720339,14.7203647 L3.06779661,7.60790274 C5.15890876,5.82977834 7.31672617,4.4506128 9.54131356,3.47036474 C11.765901,2.49011668 14.1906648,2 16.815678,2 C21.4873115,2 25.2134395,3.06001979 27.9941737,5.18009119 C30.774908,7.30016258 32.1652542,10.3206491 32.1652542,14.2416413 C32.1652542,18.4361912 29.8962091,21.5592603 25.3580508,23.6109422 L25.3580508,23.8844985 C27.7606052,24.6595783 29.7182128,25.9019671 31.2309322,27.6117021 C32.7436516,29.3214371 33.5,31.5440593 33.5,34.2796353 C33.5,36.3313172 33.0550892,38.1436092 32.1652542,39.7165653 C31.2754193,41.2895215 30.0852829,42.6230948 28.5948093,43.7173252 C27.1043358,44.8115556 25.3580609,45.6322161 23.3559322,46.1793313 C21.3538035,46.7264465 19.2627228,47 17.0826271,47 C13.6122708,47 10.6313684,46.452893 8.13983051,45.3586626 C5.64829263,44.2644322 3.60170292,42.759888 2,40.8449848 L7.20550847,33.4589666 Z" id="3"></path>
        </g>
    </g>
</svg>