<?xml version="1.0" encoding="UTF-8"?>
<svg width="49px" height="49px" viewBox="0 0 49 49" version="1.1" xmlns="http://www.w3.org/2000/svg" xmlns:xlink="http://www.w3.org/1999/xlink">
    <!-- Generator: Sketch 46.2 (44496) - http://www.bohemiancoding.com/sketch -->
    <title>Artboard 6</title>
    <desc>Created with Sketch.</desc>
    <defs></defs>
    <g id="Visual-Design" stroke="none" stroke-width="1" fill="none" fill-rule="evenodd">
        <g id="Artboard-6" stroke="#00B3EB" stroke-width="2">
            <path d="M3.55702918,40.1733746 C6.15651167,37.7585019 8.5818853,35.4829828 10.8332228,33.3467492 C13.0845603,31.2105156 15.0457476,29.2020218 16.7168435,27.3212074 C18.3879394,25.4403931 19.6992658,23.6524853 20.6508621,21.9574303 C21.6024583,20.2623754 22.0782493,18.6718341 22.0782493,17.1857585 C22.0782493,15.1888445 21.579249,13.714401 20.5812334,12.7623839 C19.5832178,11.8103668 18.2718914,11.3343653 16.6472149,11.3343653 C15.1617963,11.3343653 13.8504699,11.7639276 12.7131963,12.623065 C11.5759227,13.4822024 10.4734801,14.4458151 9.40583554,15.5139319 L3,9.10526316 C4.16048326,7.89782678 5.29773979,6.8413358 6.41180371,5.93575851 C7.52586764,5.03018123 8.69793815,4.28715461 9.9280504,3.70665635 C11.1581626,3.12615809 12.4578844,2.69659582 13.8272546,2.41795666 C15.1966249,2.13931749 16.6936258,2 18.3183024,2 C20.5464302,2 22.5888501,2.34829373 24.4456233,3.04489164 C26.3023966,3.74148955 27.9038394,4.716712 29.25,5.97058824 C30.5961606,7.22446447 31.6405798,8.7453471 32.3832891,10.5332817 C33.1259984,12.3212164 33.4973475,14.3064906 33.4973475,16.4891641 C33.4973475,18.2538788 33.1143938,20.0533964 32.3484748,21.8877709 C31.5825559,23.7221454 30.5961599,25.5448826 29.3892573,27.3560372 C28.1823547,29.1671917 26.8246097,30.93188 25.3159814,32.6501548 C23.8073532,34.3684296 22.3103523,35.9938004 20.8249337,37.5263158 C21.9389976,37.3869962 23.2039054,37.2592885 24.619695,37.1431889 C26.0354845,37.0270892 27.2307644,36.9690402 28.2055703,36.9690402 L35.5862069,36.9690402 L35.5862069,47 L3.55702918,47 L3.55702918,40.1733746 Z" id="2"></path>
        </g>
    </g>
</svg>