<?xml version="1.0" encoding="UTF-8"?>
<svg width="70px" height="70px" viewBox="0 0 70 70" version="1.1" xmlns="http://www.w3.org/2000/svg" xmlns:xlink="http://www.w3.org/1999/xlink">
    <!-- Generator: Sketch 43.1 (39012) - http://www.bohemiancoding.com/sketch -->
    <title>Artboard 2</title>
    <desc>Created with Sketch.</desc>
    <defs></defs>
    <g id="Visual-Design" stroke="none" stroke-width="1" fill="none" fill-rule="evenodd">
        <g id="Artboard-2">
            <ellipse id="Oval-5-Copy" fill="#1F8CEB" cx="35" cy="35" rx="32" ry="32"></ellipse>
            <path d="M45.2265711,38.781196 C44.1391765,37.6938014 42.7681137,37.6938014 41.7279971,38.781196 C40.9242707,39.5849224 40.0732662,40.3886489 39.2695398,41.2396533 C39.0331496,41.4760435 38.8440375,41.5233215 38.6076474,41.3814874 C38.0875891,41.0978193 37.5202528,40.8614291 37.0001945,40.5304829 C34.6362932,39.0175861 32.6033381,37.126465 30.8540511,34.9516758 C29.9557686,33.8642812 29.1993202,32.7296086 28.6319838,31.4058239 C28.5374278,31.1221557 28.5374278,30.9803216 28.7738179,30.7439315 C29.5775444,29.940205 30.3812708,29.1364786 31.1849973,28.3327521 C32.3196699,27.1980795 32.3196699,25.8742948 31.1849973,24.7396221 C30.5231049,24.0777298 29.9084906,23.4631154 29.2465982,22.8012231 C28.5847058,22.1393307 27.9228134,21.4774383 27.2609211,20.815546 C26.1735265,19.7281513 24.8024637,19.7281513 23.7623471,20.815546 C22.9586207,21.6192724 22.1548942,22.4702769 21.3038898,23.2740033 C20.5001633,24.0304517 20.1219391,24.9287342 20.027383,25.9688508 C19.885549,27.6708598 20.3110512,29.3255907 20.9256655,30.8857656 C22.1548942,34.1479494 23.9987373,37.079187 26.2208045,39.7267565 C26.6739376,40.264852 27.1408547,40.7870429 27.621397,41.2928528 C30.3496734,44.1645859 33.5171444,46.5082949 37.0947506,48.2368012 C38.9858716,49.1823618 40.9715487,49.8915322 43.1463379,49.9860882 C44.6119567,50.0806443 45.9357415,49.7024201 46.92858,48.5677474 C47.6377504,47.764021 48.4414769,47.0548506 49.1506473,46.2984022 C50.2380419,45.1637295 50.2853199,43.8399448 49.1506473,42.7052722 C47.8741406,41.4287654 46.5503558,40.1049807 45.2265711,38.781196 Z" id="Shape" fill="#FFFFFF" fill-rule="nonzero"></path>
        </g>
    </g>
</svg>