<?xml version="1.0" encoding="UTF-8"?>
<svg width="32px" height="29px" viewBox="0 0 32 29" version="1.1" xmlns="http://www.w3.org/2000/svg" xmlns:xlink="http://www.w3.org/1999/xlink">
    <!-- Generator: Sketch 42 (36781) - http://www.bohemiancoding.com/sketch -->
    <title>Artboard 6</title>
    <desc>Created with Sketch.</desc>
    <defs></defs>
    <g id="Visual-Design" stroke="none" stroke-width="1" fill="none" fill-rule="evenodd">
        <g id="Artboard-6" fill="#1F8CEB">
            <path d="M22.8429003,14.5045317 C22.8429003,15.4713039 23.4169127,15.984894 24.5649547,16.0453172 L26.3776435,16.1359517 C27.5861088,16.1963749 28.6586056,16.7703873 29.5951662,17.858006 C30.5317267,18.9456248 31,20.1842831 31,21.5740181 C31,23.2658695 30.3957764,24.6857949 29.1873112,25.8338369 C27.9788459,26.9818789 26.468287,27.5558912 24.6555891,27.5558912 C22.5407749,27.5558912 20.8036322,26.7250838 19.4441088,25.0634441 C18.0845853,23.4018044 17.4048338,21.2719163 17.4048338,18.673716 C17.4048338,13.839855 19.3081381,8.88522175 23.1148036,3.80966767 C24.5045387,1.93654653 25.7129858,1 26.7401813,1 C27.8882233,1 28.4622356,1.60422356 28.4622356,2.81268882 C28.4622356,3.29607492 28.1299127,3.96072085 27.4652568,4.80664653 C25.8338287,6.86103746 24.4743257,9.3081429 23.3867069,12.1480363 C23.0241674,13.1148085 22.8429003,13.9002991 22.8429003,14.5045317 Z M6.34743202,14.5045317 C6.34743202,15.4713039 6.92144441,15.984894 8.0694864,16.0453172 L9.88217523,16.1359517 C11.1510637,16.1963749 12.2537718,16.7703873 13.1903323,17.858006 C14.1268929,18.9456248 14.5951662,20.1842831 14.5951662,21.5740181 C14.5951662,23.2658695 13.9909426,24.6857949 12.7824773,25.8338369 C11.5740121,26.9818789 10.0634532,27.5558912 8.25075529,27.5558912 C6.13594109,27.5558912 4.39879834,26.7250838 3.03927492,25.0634441 C1.67975151,23.4018044 1,21.2719163 1,18.673716 C1,13.839855 2.90330423,8.88522175 6.70996979,3.80966767 C8.09970483,1.93654653 9.30815196,1 10.3353474,1 C11.4833894,1 12.0574018,1.60422356 12.0574018,2.81268882 C12.0574018,3.29607492 11.7250789,3.96072085 11.060423,4.80664653 C9.8519577,6.3172281 8.76435529,8.06947644 7.79758308,10.0634441 C6.83081088,12.0574118 6.34743202,13.5377595 6.34743202,14.5045317 Z" id="“"></path>
        </g>
    </g>
</svg>