<?xml version="1.0" encoding="UTF-8"?>
<svg width="27px" height="27px" viewBox="0 0 27 27" version="1.1" xmlns="http://www.w3.org/2000/svg" xmlns:xlink="http://www.w3.org/1999/xlink">
    <!-- Generator: Sketch 46.2 (44496) - http://www.bohemiancoding.com/sketch -->
    <title>Artboard 8</title>
    <desc>Created with Sketch.</desc>
    <defs></defs>
    <g id="Visual-Design" stroke="none" stroke-width="1" fill="none" fill-rule="evenodd">
        <g id="Artboard-8" fill-rule="nonzero" fill="#EE7A81">
            <g id="noun_974817_cc" transform="translate(1.000000, 0.000000)">
                <path d="M21.3297603,4.6559529 C17.7563386,1.08246274 12.3821547,0.0134309137 7.71320032,1.94734892 C3.04424593,3.88126692 2.86301588e-15,8.43727927 0,13.4909091 C-2.86301588e-15,18.5445388 3.04424593,23.1005512 7.71320032,25.0344692 C12.3821547,26.9683872 17.7563386,25.8993554 21.3297603,22.3258652 C23.6808989,19.9869233 25.002785,16.807308 25.002785,13.4909091 C25.002785,10.1745101 23.6808989,6.99489478 21.3297603,4.6559529 Z M12.3036362,21.2788148 C11.2495506,21.2788139 10.3949171,20.424552 10.3944578,19.3704665 C10.3939985,18.316381 11.2478872,17.4613747 12.3019724,17.4604552 C13.3560576,17.4595357 14.2114367,18.313051 14.2128164,19.3671357 C14.2128173,20.4219518 13.3584514,21.277436 12.3036362,21.2788148 L12.3036362,21.2788148 Z M17.4014471,11.7828925 C17.1015759,12.2826779 16.4668484,12.927401 15.5197551,13.6720813 C14.8175567,14.226843 14.3852423,14.671652 14.1978228,15.0115061 C14.014519,15.3770416 13.9170844,15.7796005 13.9129451,16.1885007 L10.4469335,16.1885007 L10.4469335,15.971094 C10.4309985,15.4562604 10.5028275,14.9424712 10.6593423,14.4517465 C10.7992419,14.0652868 11.010292,13.7084512 11.2815751,13.3996982 C11.8893492,12.7751828 12.537106,12.1908661 13.2207424,11.6504494 C13.8104891,11.1706554 14.0953668,10.7308443 14.0953668,10.3035278 C14.1145976,9.93698041 13.9763986,9.57966319 13.7155299,9.32144948 C13.406073,9.06686709 13.0107189,8.94074734 12.6110042,8.96910078 C12.122792,8.95458938 11.6507471,9.14485696 11.3090633,9.49387543 C10.9916995,9.81373808 10.7867875,10.328517 10.6843315,11.0657005 L7.13835423,10.6283883 C7.24463893,9.42508973 7.77621326,8.29903811 8.63771038,7.45225213 C9.50483803,6.61761054 10.8642543,6.20278867 12.6784752,6.20278867 C14.0953668,6.20278867 15.2473721,6.50016097 16.1095019,7.08490988 C17.2864965,7.87956864 17.8587507,8.90912653 17.8587507,10.22856 C17.8500002,10.7754094 17.6918612,11.3094525 17.4014471,11.7728968 L17.4014471,11.7828925 Z" id="Shape"></path>
            </g>
        </g>
    </g>
</svg>