<?xml version="1.0" encoding="UTF-8"?>
<svg width="50px" height="50px" viewBox="0 0 50 50" version="1.1" xmlns="http://www.w3.org/2000/svg" xmlns:xlink="http://www.w3.org/1999/xlink">
    <!-- Generator: Sketch 44.1 (41455) - http://www.bohemiancoding.com/sketch -->
    <title>Artboard 4</title>
    <desc>Created with Sketch.</desc>
    <defs></defs>
    <g id="Visual-Design" stroke="none" stroke-width="1" fill="none" fill-rule="evenodd">
        <g id="Artboard-4">
            <g id="Group-7">
                <g id="Group-21-Copy-2" transform="translate(-0.000000, 0.000000)" fill="#FF616F">
                    <circle id="Oval-3" cx="25" cy="25" r="25"></circle>
                </g>
                <g id="noun_778850_cc-copy" transform="translate(11.666667, 11.666667)" fill-rule="nonzero" stroke="#FFFFFF" fill="#FFFFFF">
                    <g id="Group">
                        <g id="Shape">
                            <path d="M13.3333333,26.6666667 C9.68888889,26.6666667 6.31111111,25.3037037 3.85185185,22.8444444 C1.36296296,20.3555556 0,16.9777778 0,13.3333333 C0,9.68888889 1.36296296,6.31111111 3.82222222,3.85185185 C6.31111111,1.36296296 9.68888889,0 13.3333333,0 C16.9777778,0 20.3555556,1.36296296 22.8148148,3.85185185 C25.3037037,6.34074074 26.6666667,9.71851852 26.6666667,13.362963 C26.6666667,17.0074074 25.3037037,20.3851852 22.8148148,22.8444444 C20.3555556,25.3037037 16.9777778,26.6666667 13.3333333,26.6666667 Z M13.3333333,2.04444444 C10.2518519,2.04444444 7.37777778,3.2 5.3037037,5.27407407 C3.22962963,7.37777778 2.07407407,10.2222222 2.07407407,13.3333333 C2.07407407,16.4148148 3.22962963,19.2888889 5.3037037,21.362963 C7.37777778,23.437037 10.2518519,24.5925926 13.3333333,24.5925926 C16.4444444,24.5925926 19.2888889,23.437037 21.3925926,21.362963 C23.4962963,19.2888889 24.6222222,16.4148148 24.6222222,13.3333333 C24.6222222,10.2222222 23.4666667,7.37777778 21.362963,5.27407407 C19.2888889,3.2 16.4148148,2.04444444 13.3333333,2.04444444 Z" stroke-width="0.5"></path>
                            <path d="M17.2839506,18.7654321 L12.4115226,14.1168724 L12.4115226,7.04526749 C12.8395062,7.04526749 13.3333333,7.04526749 14.0246914,7.04526749 L14.0246914,13.4485597 L18.4131687,17.636214 C18.1465021,17.9226337 17.6526749,18.4164609 17.2839506,18.7654321 Z"></path>
                        </g>
                    </g>
                </g>
            </g>
        </g>
    </g>
</svg>