<?xml version="1.0" encoding="UTF-8"?>
<svg width="50px" height="50px" viewBox="0 0 50 50" version="1.1" xmlns="http://www.w3.org/2000/svg" xmlns:xlink="http://www.w3.org/1999/xlink">
    <!-- Generator: Sketch 46.2 (44496) - http://www.bohemiancoding.com/sketch -->
    <title>Artboard</title>
    <desc>Created with Sketch.</desc>
    <defs></defs>
    <g id="Visual-Design" stroke="none" stroke-width="1" fill="none" fill-rule="evenodd">
        <g id="Artboard" stroke="#4182D7" stroke-width="0.5" fill="#4182D7" fill-rule="nonzero">
            <g id="noun_1015043_cc" transform="translate(1.000000, 4.000000)">
                <path d="M47.943582,12.852015 C47.9672358,12.79251 47.9853887,12.7314112 47.99364,12.6687184 C47.9941901,12.6660619 47.9947402,12.6634055 47.9952903,12.660749 C48.0035416,12.5948685 48.0002411,12.5284567 47.9908896,12.4625761 C47.9886892,12.4466373 47.9853887,12.4312298 47.9820881,12.4158222 C47.9705363,12.3568485 47.9518333,12.2989374 47.925429,12.2426202 C47.9232287,12.2367759 47.9226786,12.2309317 47.9199282,12.2250875 C47.918828,12.2234936 47.9177278,12.2218997 47.9166276,12.2203058 C47.8902234,12.168239 47.8594184,12.1182973 47.8209122,12.0715433 L38.1173515,0.300712712 C38.1118506,0.294337178 38.1052495,0.289555527 38.0997486,0.283711287 C38.0749947,0.255552676 38.0469401,0.230050538 38.0183355,0.205079694 C38.0034832,0.191797331 37.9891809,0.177452378 37.9732283,0.165763898 C37.9424233,0.143449527 37.9088679,0.124322923 37.8747625,0.105727614 C37.8571596,0.0961643126 37.8401069,0.0844758326 37.821954,0.0759751199 C37.8192035,0.0749125308 37.8175533,0.0733186471 37.8148028,0.0722560581 C37.7630945,0.0494103926 37.710286,0.0318776727 37.6563773,0.0201891927 C37.6558272,0.0201891927 37.6558272,0.0201891927 37.6552772,0.0201891927 C37.598068,0.00743812362 37.5397586,0.00159388363 37.4819993,0.00106258909 C37.4786988,0.00106258909 37.4753982,0 37.4715476,0 L24.0020811,0 C24.001531,0 24.000981,0 24.0004309,0 C23.9998808,0 23.9993307,0 23.9987806,0 L10.5293141,0 C10.5254635,0 10.522163,0.00106258909 10.5188624,0.00106258909 C10.4611032,0.00159388363 10.4022437,0.00743812362 10.3444844,0.0201891927 L10.3444844,0.0201891927 C10.2905757,0.0318776727 10.2377672,0.0494103926 10.1860589,0.0722560581 C10.1833085,0.0733186471 10.1816582,0.0749125308 10.1789078,0.0759751199 C10.1607548,0.0844758326 10.1442522,0.0961643126 10.1260993,0.105727614 C10.0919938,0.124322923 10.0584384,0.142918232 10.0276334,0.165763898 C10.0116809,0.177452378 9.99737857,0.191797331 9.98252618,0.205079694 C9.95337149,0.230050538 9.92531698,0.255552676 9.90111309,0.283711287 C9.8956122,0.290086821 9.88901114,0.294337178 9.88351026,0.300712712 L0.17884933,12.0726059 C0.140343136,12.1193599 0.109538181,12.1693015 0.0831339344,12.2213684 C0.0820337575,12.2229623 0.0809335805,12.2240249 0.0798334036,12.2261501 C0.0770829612,12.231463 0.0765328727,12.2378385 0.0743325188,12.2436828 C0.0479282718,12.2994687 0.0297753521,12.3573798 0.0176734055,12.4168848 C0.0143728747,12.4328236 0.0110723438,12.4482312 0.0088719899,12.4636387 C-0.000479514221,12.5295192 -0.00322995661,12.5959311 0.00447128208,12.6618116 C0.00502137056,12.6644681 0.00557145904,12.6671245 0.00612154751,12.669781 C0.0143728747,12.7324738 0.0325257945,12.7930413 0.056179599,12.8530776 C0.0627806607,12.8690165 0.0693817225,12.8849553 0.0770829612,12.9008941 C0.102387031,12.9550862 0.133742074,13.0066217 0.172248268,13.0549695 C0.176098887,13.0602825 0.178299241,13.066658 0.182699949,13.071971 L23.3584776,40.7046002 C23.3590277,40.7051315 23.3595778,40.7056628 23.360678,40.7061941 C23.3953335,40.7481664 23.43549,40.7869509 23.4805973,40.8220163 C23.4822475,40.8230789 23.4844479,40.8236102 23.4860981,40.8246728 C23.4904988,40.8278606 23.4943495,40.8321109 23.4982001,40.8352987 C23.5020507,40.8374239 23.5059013,40.8390178 23.5092019,40.8416742 C23.5697116,40.8852404 23.6357222,40.9171181 23.7044833,40.9426202 C23.7138348,40.9463393 23.721536,40.9532461 23.7314376,40.9564338 C23.7418893,40.9596216 23.7528911,40.9590903 23.7638928,40.9622781 C23.8403551,40.9845925 23.9179176,40.9994687 23.9976804,41 C23.9987806,41 23.9993307,41 23.9998808,41 C23.9998808,41 23.9998808,41 24.0004309,41 L24.0004309,41 L24.0004309,41 C24.000981,41 24.000981,41 24.000981,41 C24.001531,41 24.0020811,41 24.0031813,41 C24.0829441,41 24.1605066,40.9845925 24.2369689,40.9622781 C24.2479707,40.9590903 24.2589725,40.9601529 24.2694241,40.9564338 C24.2793257,40.9532461 24.287027,40.9463393 24.2963785,40.9426202 C24.3651395,40.9171181 24.4311501,40.8852404 24.4916599,40.8416742 C24.4949604,40.839549 24.498811,40.8379552 24.5026616,40.8352987 C24.5070624,40.8321109 24.510913,40.8283919 24.5147636,40.8246728 C24.5164139,40.8236102 24.5186142,40.8230789 24.5202645,40.8220163 C24.5653717,40.7869509 24.6049781,40.7481664 24.6401838,40.7061941 C24.6412839,40.7056628 24.641834,40.7051315 24.6423841,40.7046002 L47.8181618,13.071971 C47.8225625,13.066658 47.8247628,13.0602825 47.8286135,13.0549695 C47.8671197,13.007153 47.8984747,12.9550862 47.9237788,12.9008941 C47.9303798,12.8838927 47.937531,12.8684852 47.943582,12.852015 Z M10.3373333,2.3084748 L14.8205543,11.7724245 L2.53597846,11.7724245 L10.3373333,2.3084748 Z M11.8143208,1.59388363 L22.5036401,1.59388363 L16.2997423,11.0631463 L11.8143208,1.59388363 Z M17.7882817,11.7718932 L24.0020811,2.28722301 L30.2153305,11.7718932 L17.7882817,11.7718932 Z M30.8116264,13.3657769 L24.0004309,37.2054944 L17.1892353,13.3657769 L30.8116264,13.3657769 Z M31.7022196,11.0604898 L25.5010722,1.59388363 L36.187091,1.59388363 L31.7022196,11.0604898 Z M37.6635285,2.3084748 L45.4648833,11.7718932 L33.1803074,11.7718932 L37.6635285,2.3084748 Z M15.47736,13.3657769 L22.1532338,36.7321109 L2.55523155,13.3657769 L15.47736,13.3657769 Z M25.847628,36.7326422 L32.5235017,13.3663082 L45.4456302,13.3663082 L25.847628,36.7326422 Z" id="Shape"></path>
            </g>
        </g>
    </g>
</svg>