<?xml version="1.0" encoding="UTF-8"?>
<svg width="51px" height="51px" viewBox="0 0 51 51" version="1.1" xmlns="http://www.w3.org/2000/svg" xmlns:xlink="http://www.w3.org/1999/xlink">
    <!-- Generator: Sketch 46.1 (44463) - http://www.bohemiancoding.com/sketch -->
    <title>Artboard 4</title>
    <desc>Created with Sketch.</desc>
    <defs></defs>
    <g id="Visual-Design" stroke="none" stroke-width="1" fill="none" fill-rule="evenodd">
        <g id="Artboard-4" stroke="#00B3EB" stroke-width="2">
            <path d="M23.1097257,27.5577211 L20.8877805,26.5457271 C17.6109562,25.0614618 15.3441459,23.543486 14.0872818,21.9917541 C12.8304177,20.4400222 12.201995,18.5847184 12.201995,16.4257871 C12.201995,13.9969894 13.2344036,11.8605789 15.2992519,10.0164918 C17.3641001,8.17240457 19.9675653,7.25037481 23.1097257,7.25037481 L23.1097257,3 L28.0922693,3 L28.0922693,7.38530735 C33.972598,7.97001792 37.2044859,10.8935269 37.7880299,16.155922 L31.1221945,17.3028486 C30.7630905,14.9190286 29.7531255,13.5247397 28.0922693,13.11994 L28.0922693,22.0254873 C32.5361818,23.8695744 35.4650802,25.6799012 36.8790524,27.4565217 C38.2930245,29.2331423 39,31.2683543 39,33.5622189 C39,36.2159053 37.9788132,38.4647584 35.936409,40.3088456 C33.8940048,42.1529328 31.2793177,43.2323822 28.0922693,43.5472264 L28.0922693,48 L23.1097257,48 L23.1097257,43.4797601 C16.4214129,42.8050941 12.7182081,39.5667457 12,33.7646177 L19.3391521,32.2128936 C19.3391521,35.0015132 20.5959974,36.8005957 23.1097257,37.6101949 L23.1097257,27.5577211 Z M23.1097257,20.2038981 L23.1097257,13.3223388 C22.1670776,13.3223388 21.3815493,13.6034455 20.7531172,14.1656672 C20.1246851,14.7278889 19.8104738,15.4587661 19.8104738,16.3583208 C19.8104738,17.8875639 20.6633331,19.0569675 22.3690773,19.8665667 L23.1097257,20.2038981 Z M28.0922693,29.6491754 L28.0922693,37.88006 C30.3815576,37.4302826 31.5261845,36.1709249 31.5261845,34.101949 C31.5261845,32.2128841 30.6957689,30.8860608 29.0349127,30.1214393 L28.0922693,29.6491754 Z" id="$"></path>
        </g>
    </g>
</svg>